<svg width="1440" height="898" xmlns="http://www.w3.org/2000/svg" xmlns:xlink="http://www.w3.org/1999/xlink">
    <defs>
        <filter x="-42.2%" y="-39.5%" width="184.5%" height="179.1%" filterUnits="objectBoundingBox" id="b">
            <feGaussianBlur stdDeviation="50" in="SourceGraphic"/>
        </filter>
        <filter x="-44.3%" y="-32.7%" width="188.6%" height="165.3%" filterUnits="objectBoundingBox" id="d">
            <feGaussianBlur stdDeviation="50" in="SourceGraphic"/>
        </filter>
        <filter x="-42.2%" y="-46.2%" width="184.5%" height="192.5%" filterUnits="objectBoundingBox" id="e">
            <feGaussianBlur stdDeviation="50" in="SourceGraphic"/>
        </filter>
        <filter x="-32.6%" y="-46.2%" width="165.3%" height="192.5%" filterUnits="objectBoundingBox" id="f">
            <feGaussianBlur stdDeviation="50" in="SourceGraphic"/>
        </filter>
        <filter x="-43.1%" y="-58.5%" width="186.2%" height="217%" filterUnits="objectBoundingBox" id="g">
            <feGaussianBlur stdDeviation="50" in="SourceGraphic"/>
        </filter>
        <filter x="-60.8%" y="-31.6%" width="221.5%" height="163.3%" filterUnits="objectBoundingBox" id="i">
            <feGaussianBlur stdDeviation="50" in="SourceGraphic"/>
        </filter>
        <filter x="-63.8%" y="-29.1%" width="227.6%" height="158.2%" filterUnits="objectBoundingBox" id="k">
            <feGaussianBlur stdDeviation="50" in="SourceGraphic"/>
        </filter>
        <filter x="-60.5%" y="-35.4%" width="220.9%" height="170.8%" filterUnits="objectBoundingBox" id="l">
            <feGaussianBlur stdDeviation="50" in="SourceGraphic"/>
        </filter>
        <filter x="-47%" y="-46.2%" width="193.9%" height="192.5%" filterUnits="objectBoundingBox" id="m">
            <feGaussianBlur stdDeviation="50" in="SourceGraphic"/>
        </filter>
        <filter x="-61.9%" y="-58.5%" width="223.9%" height="217%" filterUnits="objectBoundingBox" id="n">
            <feGaussianBlur stdDeviation="50" in="SourceGraphic"/>
        </filter>
        <filter x="-61.9%" y="-25.9%" width="223.9%" height="151.8%" filterUnits="objectBoundingBox" id="o">
            <feGaussianBlur stdDeviation="50" in="SourceGraphic"/>
        </filter>
        <filter x="-61.9%" y="-58.5%" width="223.9%" height="217%" filterUnits="objectBoundingBox" id="p">
            <feGaussianBlur stdDeviation="50" in="SourceGraphic"/>
        </filter>
        <filter x="-86.2%" y="-98.4%" width="272.4%" height="296.9%" filterUnits="objectBoundingBox" id="v">
            <feGaussianBlur stdDeviation="30" in="SourceGraphic"/>
        </filter>
        <filter x="-98.7%" y="-83.8%" width="297.4%" height="267.6%" filterUnits="objectBoundingBox" id="x">
            <feGaussianBlur stdDeviation="50" in="SourceGraphic"/>
        </filter>
        <filter x="-84.6%" y="-140.2%" width="269.1%" height="380.4%" filterUnits="objectBoundingBox" id="y">
            <feGaussianBlur stdDeviation="40" in="SourceGraphic"/>
        </filter>
        <filter x="-143.7%" y="-164%" width="387.4%" height="428.1%" filterUnits="objectBoundingBox" id="z">
            <feGaussianBlur stdDeviation="50" in="SourceGraphic"/>
        </filter>
        <filter x="-86.3%" y="-98.5%" width="272.5%" height="296.9%" filterUnits="objectBoundingBox" id="B">
            <feGaussianBlur stdDeviation="30" in="SourceGraphic"/>
        </filter>
        <filter x="-98.7%" y="-83.9%" width="297.5%" height="267.7%" filterUnits="objectBoundingBox" id="D">
            <feGaussianBlur stdDeviation="50" in="SourceGraphic"/>
        </filter>
        <filter x="-84.6%" y="-140.3%" width="269.2%" height="380.6%" filterUnits="objectBoundingBox" id="E">
            <feGaussianBlur stdDeviation="40" in="SourceGraphic"/>
        </filter>
        <filter x="-143.8%" y="-164.1%" width="387.5%" height="428.2%" filterUnits="objectBoundingBox" id="F">
            <feGaussianBlur stdDeviation="50" in="SourceGraphic"/>
        </filter>
        <filter x="-76.5%" y="-98.1%" width="253%" height="296.2%" filterUnits="objectBoundingBox" id="X">
            <feGaussianBlur stdDeviation="50" in="SourceGraphic"/>
        </filter>
        <filter x="-90.8%" y="-83.2%" width="281.5%" height="266.4%" filterUnits="objectBoundingBox" id="Z">
            <feGaussianBlur stdDeviation="50" in="SourceGraphic"/>
        </filter>
        <filter x="-65.3%" y="-89.1%" width="230.6%" height="278.2%" filterUnits="objectBoundingBox" id="aa">
            <feGaussianBlur stdDeviation="40" in="SourceGraphic"/>
        </filter>
        <filter x="-66.4%" y="-75.3%" width="232.8%" height="250.7%" filterUnits="objectBoundingBox" id="ab">
            <feGaussianBlur stdDeviation="50" in="SourceGraphic"/>
        </filter>
        <filter x="-86.4%" y="-116.7%" width="272.8%" height="333.4%" filterUnits="objectBoundingBox" id="ac">
            <feGaussianBlur stdDeviation="30" in="SourceGraphic"/>
        </filter>
        <filter x="-76.4%" y="-97.9%" width="252.8%" height="295.8%" filterUnits="objectBoundingBox" id="ae">
            <feGaussianBlur stdDeviation="50" in="SourceGraphic"/>
        </filter>
        <filter x="-90.6%" y="-83%" width="281.2%" height="266%" filterUnits="objectBoundingBox" id="ag">
            <feGaussianBlur stdDeviation="50" in="SourceGraphic"/>
        </filter>
        <filter x="-65.2%" y="-88.9%" width="230.4%" height="277.9%" filterUnits="objectBoundingBox" id="ah">
            <feGaussianBlur stdDeviation="40" in="SourceGraphic"/>
        </filter>
        <filter x="-66.3%" y="-75.2%" width="232.6%" height="250.4%" filterUnits="objectBoundingBox" id="ai">
            <feGaussianBlur stdDeviation="50" in="SourceGraphic"/>
        </filter>
        <filter x="-86.3%" y="-116.5%" width="272.5%" height="332.9%" filterUnits="objectBoundingBox" id="aj">
            <feGaussianBlur stdDeviation="30" in="SourceGraphic"/>
        </filter>
        <linearGradient x1="100%" y1="50%" x2="0%" y2="50%" id="q">
            <stop stop-color="#150FBA" offset="0%"/>
            <stop stop-color="#A91889" offset="100%"/>
        </linearGradient>
        <linearGradient x1="100%" y1="50%" x2="0%" y2="50%" id="r">
            <stop stop-color="#150FBA" offset="0%"/>
            <stop stop-color="#A91889" offset="100%"/>
        </linearGradient>
        <linearGradient x1="100%" y1="50%" x2="0%" y2="50%" id="s">
            <stop stop-color="#D335BE" offset="0%"/>
            <stop stop-color="#A7188A" stop-opacity="0" offset="100%"/>
        </linearGradient>
        <linearGradient x1="100%" y1="50%" x2="0%" y2="50%" id="t">
            <stop stop-color="#180FB9" offset="0%"/>
            <stop stop-color="#1810BA" stop-opacity="0" offset="100%"/>
        </linearGradient>
        <linearGradient x1="50%" y1="0%" x2="50%" y2="100%" id="G">
            <stop stop-color="#891480" stop-opacity="0" offset="0%"/>
            <stop stop-color="#891480" offset="100%"/>
        </linearGradient>
        <linearGradient x1="50%" y1="0%" x2="50%" y2="100%" id="H">
            <stop stop-color="#7E1593" stop-opacity="0" offset="0%"/>
            <stop stop-color="#7E1593" offset="100%"/>
        </linearGradient>
        <linearGradient x1="50%" y1="0%" x2="50%" y2="100%" id="I">
            <stop stop-color="#68128B" stop-opacity="0" offset="0%"/>
            <stop stop-color="#68128B" offset="100%"/>
        </linearGradient>
        <linearGradient x1="50%" y1="0%" x2="50%" y2="100%" id="J">
            <stop stop-color="#5B118E" stop-opacity="0" offset="0%"/>
            <stop stop-color="#5B118F" offset="100%"/>
        </linearGradient>
        <linearGradient x1="50%" y1="0%" x2="50%" y2="100%" id="K">
            <stop stop-color="#2A10B3" stop-opacity="0" offset="0%"/>
            <stop stop-color="#250EA2" offset="100%"/>
        </linearGradient>
        <linearGradient x1="50%" y1="0%" x2="50%" y2="100%" id="L">
            <stop stop-color="#370F9C" stop-opacity="0" offset="0%"/>
            <stop stop-color="#370F9C" offset="100%"/>
        </linearGradient>
        <linearGradient x1="50%" y1="0%" x2="50%" y2="100%" id="M">
            <stop stop-color="#4E1BA2" stop-opacity="0" offset="0%"/>
            <stop stop-color="#4E1BA2" offset="100%"/>
        </linearGradient>
        <linearGradient x1="50%" y1="0%" x2="50%" y2="100%" id="N">
            <stop stop-color="#521198" stop-opacity="0" offset="0%"/>
            <stop stop-color="#521198" offset="100%"/>
        </linearGradient>
        <linearGradient x1="50%" y1="0%" x2="50%" y2="100%" id="O">
            <stop stop-color="#891480" stop-opacity="0" offset="0%"/>
            <stop stop-color="#891480" offset="100%"/>
        </linearGradient>
        <linearGradient x1="50%" y1="0%" x2="50%" y2="100%" id="P">
            <stop stop-color="#7E1593" stop-opacity="0" offset="0%"/>
            <stop stop-color="#7E1593" offset="100%"/>
        </linearGradient>
        <linearGradient x1="50%" y1="0%" x2="50%" y2="100%" id="Q">
            <stop stop-color="#68128B" stop-opacity="0" offset="0%"/>
            <stop stop-color="#68128B" offset="100%"/>
        </linearGradient>
        <linearGradient x1="50%" y1="0%" x2="50%" y2="100%" id="R">
            <stop stop-color="#5B118E" stop-opacity="0" offset="0%"/>
            <stop stop-color="#5B118F" offset="100%"/>
        </linearGradient>
        <linearGradient x1="50%" y1="0%" x2="50%" y2="100%" id="S">
            <stop stop-color="#2A10B3" stop-opacity="0" offset="0%"/>
            <stop stop-color="#250EA2" offset="100%"/>
        </linearGradient>
        <linearGradient x1="50%" y1="0%" x2="50%" y2="100%" id="T">
            <stop stop-color="#370F9C" stop-opacity="0" offset="0%"/>
            <stop stop-color="#370F9C" offset="100%"/>
        </linearGradient>
        <linearGradient x1="50%" y1="0%" x2="50%" y2="100%" id="U">
            <stop stop-color="#4E1BA2" stop-opacity="0" offset="0%"/>
            <stop stop-color="#4E1BA2" offset="100%"/>
        </linearGradient>
        <linearGradient x1="50%" y1="0%" x2="50%" y2="100%" id="V">
            <stop stop-color="#521198" stop-opacity="0" offset="0%"/>
            <stop stop-color="#521198" offset="100%"/>
        </linearGradient>
        <path id="a" d="M0 0h388v1013H0z"/>
        <path id="h" d="M0 0h289v979H0z"/>
        <path id="u" d="M0 0h414v381H0z"/>
        <path id="A" d="M0 0h238v307H0z"/>
        <path id="W" d="M0 0h453v493H0z"/>
        <path id="ad" d="M0 0h340v291H0z"/>
    </defs>
    <g fill="none" fill-rule="evenodd">
        <g opacity=".7" transform="rotate(-90 480 206.5)">
            <mask id="c" fill="#fff">
                <use xlink:href="#a"/>
            </mask>
            <use fill-opacity="0" fill="#000" xlink:href="#a"/>
            <ellipse fill="#8923D5" opacity=".5" filter="url(#b)" mask="url(#c)" cx="-163.523" cy="633.564" rx="177.589" ry="189.718"/>
            <ellipse fill="#DB1AB0" filter="url(#d)" mask="url(#c)" cx="-65.057" cy="402.858" rx="169.384" ry="229.535"/>
            <ellipse fill="#160FBB" filter="url(#e)" mask="url(#c)" cx="39.855" cy="549.245" rx="177.589" ry="162.197"/>
            <ellipse fill="#510FBB" filter="url(#f)" mask="url(#c)" cx="-49.233" cy="443.261" rx="229.752" ry="162.197"/>
            <ellipse fill="#0A0A0A" filter="url(#g)" mask="url(#c)" cx="194.586" cy="363.04" rx="174.073" ry="128.235"/>
        </g>
        <g opacity=".4" transform="rotate(-90 624.5 350.5)">
            <mask id="j" fill="#fff">
                <use xlink:href="#h"/>
            </mask>
            <use fill-opacity="0" fill="#000" xlink:href="#h"/>
            <path d="M173.751 916.934c68.174 0 123.44-179.427 123.44-284.331 0-104.904-55.266-189.945-123.44-189.945s-123.44 85.041-123.44 189.945 55.266 284.331 123.44 284.331z" fill="#8923D5" opacity=".5" filter="url(#i)" mask="url(#j)"/>
            <path d="M277.3 631.783c64.942 0 117.589-102.859 117.589-229.741 0-126.882-52.647-229.74-117.59-229.74-30.412 0-47.48-83.319-68.356-46.3-23.701 42.03-49.232 208.576-49.232 276.04 0 126.882 52.646 229.74 117.589 229.74z" fill="#DB1AB0" filter="url(#k)" mask="url(#j)"/>
            <path d="M315.153 710.517c68.945-31.003 123.612-72.545 123.612-162.035s-55.343-162.035-123.612-162.035c-68.27 0-123.612 72.546-123.612 162.035 0 52.376-7.381 229.519 22.03 259.14 20.84 20.989 74.201-84.792 101.582-97.105z" fill="#160FBB" filter="url(#l)" mask="url(#j)"/>
            <ellipse fill="#510FBB" filter="url(#m)" mask="url(#j)" cx="253.314" cy="443.243" rx="159.711" ry="162.191"/>
            <ellipse fill="#0A0A0A" filter="url(#n)" mask="url(#j)" cx="421.8" cy="362.441" rx="121.099" ry="128.23"/>
            <path d="M124.804 658.355c49.337-63.779 98.674-95.99 98.674-166.761s-25.28-126.388-88.48-156.814c-22.594-10.878-65.572-113.41-84.403-100.642C17.004 256.913-18.72 446.244-18.72 491.594c0 50.583 41.735 299.813 81.956 320.65 16.054 8.317 39.144-96.546 61.57-153.889z" fill="#0A0A0A" filter="url(#o)" mask="url(#j)"/>
            <ellipse fill="#0A0A0A" filter="url(#p)" mask="url(#j)" cx="133.97" cy="808.612" rx="121.099" ry="128.23"/>
        </g>
        <g opacity=".5" fill-rule="nonzero">
            <path d="M664.957.065c16.41 29.545 21.305 66.8 14.703 111.75-1.27 8.653-4.366 17.945-9.374 28.504l-.807 1.678c-.96 1.97-1.984 3.984-3.074 6.046l-.951 1.78-.983 1.803a270.6 270.6 0 0 1-1.015 1.829l-1.048 1.853c-.354.622-.714 1.249-1.08 1.88l-.96 1.646-.828 1.404-.846 1.42-.864 1.435-1.336 2.194-1.387 2.248-1.444 2.312-.997 1.582-2.084 3.272-2.214 3.436-2.358 3.62-19.103 28.882-1.548 2.367-2.259 3.478-2.186 3.396-1.419 2.22-1.387 2.188-1.358 2.155-1.328 2.126-1.3 2.096-1.27 2.069-.626 1.024-1.23 2.03-.605 1.005-1.19 1.993-1.165 1.972-1.14 1.95-1.115 1.93-.55.959-1.08 1.903-.531.946-1.047 1.88-.515.934-1.014 1.859-.993 1.846-.49.92-.963 1.83c-.318.609-.633 1.216-.944 1.822l-.926 1.814-.908 1.808-.89 1.804-.44.9-.865 1.798-.85 1.797-.42.899-.828 1.797-.409.9-.807 1.8c-10.896 24.533-16.605 47.532-16.605 70.186 0 47.748 29.72 90.576 89.238 128.494l1.813 1.147-.623.993c-61.038-38.396-91.598-81.945-91.598-130.634 0-22.834 5.747-45.99 16.705-70.662l.404-.904.817-1.806.413-.902.838-1.803.853-1.803.433-.902.877-1.806.893-1.809.453-.906.92-1.817.937-1.823.476-.915.966-1.836.49-.922.997-1.852c.168-.31.336-.62.506-.93l1.027-1.87 1.05-1.886 1.071-1.9 1.095-1.917 1.118-1.936 1.143-1.955.58-.985 1.18-1.987 1.207-2.01 1.233-2.034 1.26-2.06 1.288-2.087 1.316-2.115 1.346-2.145 1.375-2.176 1.406-2.208 1.436-2.242 1.469-2.277 1.5-2.314 1.535-2.352 10.36-15.671L643.796 183l2.43-3.716 2.281-3.52 1.62-2.523 1.548-2.435.995-1.579.968-1.546 1.402-2.263.905-1.476.883-1.453.862-1.433.843-1.415.827-1.4.955-1.64 1.073-1.866c9.687-16.994 15.3-30.735 17.115-43.09 6.5-44.265 1.8-80.97-14.083-110.129l-.485-.88 1.023-.57zm-94.77.19c2.91 18.374 4.067 39.175 3.47 62.405l-.085 2.978c-.032.998-.067 2-.105 3.006l-.123 3.03c-.067 1.523-.14 3.055-.222 4.598l-.171 3.097a562.85 562.85 0 0 1-.19 3.124l-.21 3.15-.228 3.176c-.04.532-.08 1.065-.122 1.598l-.257 3.217c-.222 2.69-.464 5.41-.725 8.155l-.324 3.309-.169 1.664-.352 3.348c-.06.56-.122 1.121-.184 1.684-1.281 11.649-4.479 23.33-9.636 36.068-.218.537-.439 1.076-.663 1.616l-.682 1.626-.348.818-.714 1.646-.365.829-.748 1.672-.383.844-.786 1.706-.402.863-.826 1.746-.853 1.776c-.145.299-.29.599-.438.9l-.898 1.828-.461.928-.946 1.885-.98 1.928c-.165.325-.333.652-.502.98l-1.03 1.998-1.068 2.047-1.807 3.418-7.062 13.1-7.197 13.34-1.935 3.62-.727 1.377-1.427 2.724-.7 1.348-1.374 2.666-.675 1.32-1.323 2.613c-.218.433-.435.864-.65 1.295l-1.274 2.566c-8.6 17.435-14.97 32.856-20.197 49.547-8.441 26.96-12.877 54.99-12.877 85.85 0 37.689 26.669 75.452 80.082 113.27l1.626 1.146-.671.96c-54.78-38.397-82.208-76.85-82.208-115.377 0-30.98 4.454-59.128 12.93-86.2 4.735-15.118 10.402-29.193 17.8-44.643l1.214-2.518c.205-.422.411-.844.62-1.268l1.26-2.559c.64-1.286 1.29-2.584 1.954-3.894l1.344-2.637 1.378-2.673 1.412-2.71 1.75-3.32 2.135-3.985 12.667-23.473 1.792-3.352 1.102-2.094 1.064-2.04 1.028-1.992.994-1.944.959-1.9.467-.935.911-1.84c.15-.303.297-.605.444-.906l.865-1.786c.284-.59.562-1.175.836-1.755l.81-1.725.394-.853.77-1.687.375-.835.733-1.656c.24-.549.477-1.095.71-1.639l.69-1.624.336-.808.66-1.609c5.12-12.643 8.289-24.222 9.558-35.756.187-1.705.368-3.4.54-5.086l.337-3.357c1.306-13.374 2.145-26.098 2.515-38.17l.083-3.005c.548-22.434-.548-42.58-3.289-60.437L569.03.44l1.157-.184zm-96 .119 1.17-.047.144 3.675.137 3.632.129 3.59.179 5.304.161 5.208.098 3.418.09 3.376.082 3.333.074 3.29.067 3.248.085 4.792.047 3.14.039 3.099.031 3.056.024 3.012.015 2.97.008 2.928v2.884l-.008 2.842-.015 2.8-.024 2.756-.031 2.714-.04 2.67-.046 2.63-.055 2.585-.063 2.543-.07 2.5-.038 1.234-.126 3.639-.094 2.372-.102 2.33-.11 2.286-.117 2.244-.125 2.201-.133 2.159-.14 2.116-.074 1.042-.153 2.052-.079 1.01-.164 1.988-.085.978-.177 1.924-.09.945-.188 1.86-.196 1.817-.1.893-.208 1.753c-.035.289-.07.576-.107.86l-.219 1.69c-.074.556-.15 1.104-.227 1.646l-.234 1.604-.12.786c-4.151 26.705-9.033 52.66-14.793 79.44l-1.241 5.72-1.305 5.919-.993 4.44-1.011 4.468-1.383 6.033-1.433 6.167-1.493 6.352-1.168 4.914-1.212 5.068-10.044 41.615-1.175 4.998-1.043 4.529-.974 4.318-.73 3.31-.687 3.183-.487 2.31-.612 2.975-.571 2.864-.53 2.755-.37 1.997-.347 1.94-.219 1.264-.31 1.85-.194 1.204-.273 1.764-.252 1.716-.23 1.668-.14 1.088-.133 1.067-.122 1.049-.166 1.538-.1 1.003-.09.986-.118 1.449-.098 1.413-.055.923-.045.909-.037.894-.028.882-.025 1.298a86.73 86.73 0 0 0-.005.427c-.385 50.51 15.411 87.994 47.382 112.512l.974.739-.703.938c-32.613-24.493-48.888-62.066-48.83-112.66l.01-1.968.016-.87.024-.883.032-.896.041-.909.05-.923.06-.937.067-.953.077-.968.086-.984.146-1.508.11-1.027.117-1.046.128-1.064.137-1.083.224-1.662.244-1.708.267-1.756.289-1.806.311-1.858.333-1.912.357-1.967.51-2.713.41-2.104.433-2.165.457-2.23.646-3.074.512-2.384.722-3.288 1.164-5.174 1.046-4.542 1.817-7.687 8.61-35.632 1.956-8.159 1.132-4.761 1.45-6.158 1.048-4.5 1.02-4.42 1.323-5.802.97-4.308.955-4.29.945-4.295.313-1.435c6.157-28.266 11.331-55.52 15.696-83.608.12-.77.237-1.555.35-2.356l.225-1.624.216-1.666.105-.848.205-1.728.1-.88.193-1.792.186-1.833.09-.932.174-1.896.167-1.938.16-1.98.15-2.021.144-2.064.137-2.105.128-2.148.12-2.19.114-2.23.106-2.273.05-1.153.094-2.335.086-2.378.079-2.42.07-2.461.064-2.504.056-2.545.048-2.587.04-2.63.034-2.67.025-2.713.018-2.755.01-2.797.002-2.838-.005-2.88-.013-2.923-.034-4.462-.032-3.027-.04-3.069-.048-3.11-.055-3.153-.062-3.194-.109-4.87-.125-4.965-.143-5.059-.16-5.152-.117-3.488-.124-3.53-.2-5.372-.144-3.652zM380.403 0c3.39 4.557 6.006 18.051 7.856 40.53l.243 3.051.233 3.157.224 3.264c.22 3.317.425 6.794.618 10.43l.188 3.69.179 3.797.17 3.904.082 1.992.156 4.063.148 4.17.138 4.278.13 4.384.061 2.232.116 4.544.107 4.651.098 4.758.09 4.865.08 4.972.071 5.079.062 5.186.054 5.293.044 5.4.036 5.507.027 5.614.017 5.722.01 5.828v2.955c0 12.475-1.259 26.054-3.717 41.467l-.433 2.661-.456 2.697-.237 1.363-.492 2.754c-.083.462-.168.926-.254 1.391l-.63 3.367-.509 2.658-.488 2.486-.4 1.998-.864 4.19-.69 3.25-.99 4.548-.947 4.241-1.349 5.914-.993 4.287-2.246 9.566-4.546 19.145-2.385 10.175-1.421 6.178-.996 4.408-.913 4.126-.726 3.356-.571 2.698-.862 4.187-.4 1.996-.391 1.986-.193.992a643.89 643.89 0 0 0-1.04 5.518l-.254 1.387-.49 2.745c-.16.909-.315 1.81-.467 2.707l-.443 2.67c-.288 1.767-.56 3.51-.816 5.23l-.373 2.563c-1.806 12.728-2.728 24.182-2.728 34.819 0 .863.013 1.742.039 2.637l.048 1.355c.058 1.366.144 2.769.26 4.207l.125 1.45.144 1.475c.128 1.239.277 2.502.445 3.79l.212 1.56c.037.26.074.524.113.787l.24 1.594c.125.803.258 1.616.397 2.437l.289 1.654.151.836.318 1.69c.054.283.11.568.166.853l.346 1.726.366 1.75.385 1.774.404 1.798.21.907.432 1.834.453 1.857.471 1.882.243.95.5 1.917.52 1.941.539 1.965c.091.33.184.66.277.992l.567 2.001.587 2.025.301 1.022.616 2.06.635 2.085.325 1.052.664 2.12.683 2.145.703 2.169.358 1.093.732 2.204.75 2.229.77 2.252.79 2.276.808 2.3.828 2.324.847 2.348.866 2.372.885 2.396.905 2.42 1.393 3.674.953 2.48.489 1.26-1.091.425-.976-2.524-.955-2.5-.936-2.474-.916-2.451-.45-1.216-.887-2.415-.867-2.39-.847-2.365-.827-2.341-.808-2.317-.396-1.149-.778-2.28-.759-2.256-.372-1.119-.729-2.219-.357-1.1-.7-2.183-.679-2.158-.66-2.134-.323-1.058-.63-2.097-.61-2.073-.592-2.049-.571-2.024-.552-2-.532-1.976c-.174-.654-.345-1.305-.512-1.951l-.493-1.927-.239-.954-.463-1.89-.443-1.867c-.072-.309-.144-.616-.214-.923l-.414-1.83-.394-1.805-.19-.893-.364-1.769c-.06-.293-.118-.584-.175-.875l-.335-1.732c-.325-1.72-.62-3.404-.887-5.05l-.256-1.635c-.082-.541-.161-1.078-.237-1.61l-.216-1.587c-.104-.786-.2-1.564-.289-2.333l-.167-1.525c-.21-2.018-.368-3.97-.473-5.858l-.069-1.403a95.793 95.793 0 0 1-.089-4.065c0-12.476 1.26-26.054 3.717-41.468l.433-2.66.457-2.697.237-1.363.491-2.754.255-1.392.629-3.366.51-2.658.488-2.486.4-1.998.863-4.19.69-3.251.99-4.547.948-4.242 1.348-5.913.993-4.287 2.247-9.566 4.55-19.166 2.384-10.167 1.42-6.175.859-3.795.667-2.998.629-2.87.824-3.848.77-3.7.518-2.554.2-.996c.559-2.818 1.091-5.607 1.624-8.496l.253-1.387.49-2.745c.16-.909.315-1.811.467-2.707l.443-2.67c.288-1.767.56-3.51.816-5.23l.373-2.563c1.806-12.729 2.728-24.182 2.728-34.82l-.005-5.794-.013-5.691-.022-5.588-.03-5.483-.04-5.38-.022-2.652-.053-5.224-.06-5.12-.07-5.018-.078-4.913-.087-4.81-.096-4.705-.105-4.601-.113-4.498-.121-4.394-.13-4.29-.14-4.185-.147-4.082-.156-3.978-.165-3.873c-.085-1.911-.172-3.783-.263-5.616l-.187-3.613c-.031-.594-.064-1.183-.096-1.768l-.2-3.457a751.551 751.551 0 0 0-.207-3.353l-.217-3.249c-.11-1.598-.223-3.157-.34-4.677l-.238-2.989c-1.776-21.53-4.242-34.647-7.388-39.306L379.465.7l.939-.7zm378.294.377 1.17-.054.131 2.63.127 2.265.145 2.407.253 3.878.295 4.199.278 3.744.372 4.787.414 5.108.457 5.429.585 6.739.74 8.236.815 8.807 1.006 10.59.974 10.018 1.049 10.589.584 5.832.058.666.076 1.043.062 1.098.048 1.152.024.799.025 1.245.01 1.303v.9l-.013 1.4-.027 1.46-.04 1.52-.054 1.58-.044 1.089-.078 1.684-.09 1.749-.144 2.431-.167 2.548-.192 2.666-.216 2.787-.179 2.17-.258 3.003-.283 3.13-.308 3.257-.417 4.255-.536 5.214-.734 6.74-2.39 21.212-5.718 49.697-.855 7.655-.819 7.464-.784 7.282-.93 8.867-.534 5.203-.345 3.424-.665 6.744-.633 6.617-.454 4.886-.437 4.828-.42 4.772-.402 4.723-.26 3.124-.375 4.652-.242 3.081-.349 4.595-.224 3.047-.323 4.552-.207 3.023-.101 1.509c-.851 12.789-1.493 25.064-1.916 36.875-.412 11.486-.038 23.818 1.121 36.995l.243 2.647a427.461 427.461 0 0 0 2.906 23.409l.441 2.861a521.556 521.556 0 0 0 2.246 13.154l.556 2.985c.379 1.998.77 4.01 1.177 6.038l.62 3.053.64 3.075.661 3.098.339 1.557.692 3.132.355 1.574.724 3.166.37 1.591.756 3.2.386 1.608.386 1.594-1.138.278-.387-1.598-.759-3.18-.738-3.156-.718-3.135-.697-3.113a645.733 645.733 0 0 1-1.333-6.16l-.636-3.048a603.177 603.177 0 0 1-.915-4.53l-.585-2.991-.284-1.488-.554-2.96a535.002 535.002 0 0 1-1.539-8.745l-.471-2.871c-.462-2.86-.893-5.688-1.293-8.482l-.39-2.784a434.37 434.37 0 0 1-1.046-8.218l-.308-2.695c-1.836-16.555-2.502-31.855-1.998-45.903.393-10.98.975-22.358 1.738-34.176l.28-4.245.208-3.025.214-3.034.334-4.57.23-3.062.484-6.166.512-6.233.403-4.726.42-4.775.437-4.83.454-4.89.633-6.62.497-5.048.69-6.85.358-3.48.552-5.293.572-5.384.59-5.48.82-7.467 8.415-73.637 1.204-10.935.435-4.172.593-5.995.45-4.822.27-3.055.246-2.93.169-2.117.203-2.716.137-1.959.123-1.892.143-2.42.119-2.307.072-1.656.041-1.069.05-1.552.045-1.975.018-1.41.004-.908-.005-1.313-.02-1.254-.02-.805-.043-1.16-.056-1.106-.07-1.05-.055-.67-.06-.646-1.206-12.08-.874-8.907L764 65.91l-.968-10.272-.967-10.584-.608-6.89-.626-7.349-.422-5.145-.32-4.047-.235-3.081-.318-4.36-.32-4.689-.262-4.26-.154-2.782-.102-2.074zM96.005.287c7.807 71.343 11.711 146.594 11.711 225.753 0 77.814-3.772 159.405-11.317 244.771l-.393 4.42-1.166-.106c7.804-86.937 11.705-169.965 11.705-249.085 0-77.776-3.77-151.775-11.31-221.997L94.84.414l1.164-.128zM190.828.21c15.623 63.554 23.434 134.923 23.434 214.106 0 3.731-.037 7.32-.118 10.884l-.059 2.288-.092 2.9-.12 3.067-.115 2.475-.167 3.135-.153 2.55-.17 2.598-.19 2.653-.263 3.407-.233 2.808-.32 3.627-.28 3.005-.38 3.9-.245 2.422-.529 5.046-.481 4.429-.74 6.572-.816 7.048-1.171 9.832-.711 5.868-2.868 23.454-.82 6.89-.875 7.612-.709 6.445-.274 2.576-.178 1.712-.659 6.512-.799 8.264-.672 7.208-.882 9.758-.927 10.587-1.073 12.605-1.023 12.33-1.62 20.052-1.022 12.927-1.664 21.46-1.168-.09 1.445-18.665.927-11.766 1.333-16.634 1.47-17.864 1.38-16.206 1.02-11.568.878-9.628.668-7.093.64-6.551.695-6.83.48-4.517.587-5.304.642-5.603.81-6.857 1.498-12.34 1.338-10.886.9-7.414.671-5.597.629-5.317.865-7.487.4-3.538.497-4.52.35-3.251.432-4.162.397-3.98.186-1.926.263-2.817.164-1.831.232-2.684.214-2.612.197-2.55.122-1.666.169-2.458.153-2.413.137-2.373.083-1.564.113-2.325.098-2.304.085-2.29.07-2.283.041-1.522.05-2.287.039-2.3.026-2.317.019-3.13.002-1.586c0-78.27-7.639-148.882-22.915-211.84L189.691.49l1.137-.28zm94.841.016c2.033 9.413 3.8 20.938 5.304 34.575l.342 3.184c.225 2.148.444 4.346.657 6.594l.314 3.41c.258 2.872.506 5.823.744 8.852l.282 3.672c.322 4.328.626 8.809.91 13.443l.24 4.01c.117 2.023.23 4.075.34 6.155l.216 4.197.206 4.272.197 4.347.188 4.423.178 4.497.168 4.572.16 4.648.15 4.722.14 4.797.132 4.873.121 4.947.113 5.023.103 5.097.094 5.173.084 5.248.075 5.322.066 5.398.056 5.473.047 5.548.037 5.623.028 5.697.02 5.773.01 8.8c0 2.275-.017 4.514-.052 6.738l-.042 2.218-.053 2.212-.043 1.473a381.555 381.555 0 0 1-.12 3.398l-.057 1.363c-.049 1.136-.103 2.277-.163 3.423l-.116 2.099-.086 1.446-.19 2.921-.103 1.477-.166 2.237-.119 1.51-.124 1.523-.268 3.096-.218 2.369-.232 2.413-.332 3.293-.36 3.387-.286 2.607-.407 3.571-.435 3.69-.345 2.849-.485 3.915-.384 3.03-.676 5.234-.875 6.61-.946 6.995-1.87 13.792-1.043 7.873-.91 7.074-.64 5.162-.5 4.205-.262 2.289-.42 3.831-.273 2.62-.25 2.54-.318 3.446-.204 2.405-.151 1.9-.141 1.889-.075 1.06c-.11 1.588-.212 3.175-.305 4.781l-.13 2.336-.129 2.56-.073 1.602-.068 1.63-.09 2.496-.077 2.56-.064 2.621-.036 1.783-.042 2.726-.03 2.789-.015 2.851-.003 2.914.01 2.977.024 3.04.037 3.101.05 3.164.086 4.317.11 4.428.134 4.54.157 4.65.18 4.762.204 4.873.227 4.984.122 2.534.194 3.853.28 5.235.225 4 .404 6.804.35 5.568.277 4.25.29 4.312.514 7.326.217 2.994-1.168.086-.43-5.995-.406-5.882-.475-7.192-.352-5.626-.329-5.513-.23-4.06-.288-5.314-.263-5.2-.182-3.826-.22-5.002-.198-4.888-.133-3.592-.08-2.36-.11-3.485-.098-3.421-.057-2.246-.074-3.315-.06-3.251-.048-3.187-.024-2.09-.026-3.081-.011-3.017.001-2.954.016-2.89.017-1.89.024-1.863.046-2.74.06-2.677.073-2.613.057-1.707.062-1.678.068-1.65.075-1.62.068-1.383.13-2.45.125-2.147.1-1.598.07-1.063c.118-1.77.247-3.534.391-5.322l.255-3.031.226-2.487.351-3.589.395-3.752.377-3.378.342-2.948.447-3.72.576-4.626.832-6.463 1.282-9.66 2.716-20.05.97-7.359.762-5.953.588-4.732.332-2.745.318-2.679.59-5.173.274-2.5.424-4.052.236-2.366.294-3.087.205-2.267.252-2.968.174-2.187.162-2.158.149-2.132.136-2.11.125-2.09.147-2.763.066-1.373.123-2.896.054-1.47c.162-4.655.238-9.29.238-14.077l-.005-5.823-.013-5.749-.023-5.675-.033-5.602-.04-5.528-.051-5.455-.06-5.38-.069-5.308-.078-5.235-.087-5.16c-.015-.854-.03-1.705-.047-2.553l-.1-5.05-.11-4.977-.12-4.903c-.02-.811-.042-1.62-.063-2.424l-.133-4.793-.142-4.72-.152-4.645-.079-2.296-.165-4.535-.174-4.462-.184-4.389-.192-4.314-.202-4.242-.104-2.093-.216-4.13-.225-4.058-.115-2.001-.239-3.947c-.08-1.304-.163-2.595-.248-3.874l-.256-3.8-.266-3.726-.275-3.653-.285-3.58-.145-1.762-.298-3.469a725.962 725.962 0 0 0-.464-5.065l-.321-3.285-.164-1.615-.335-3.175a555.71 555.71 0 0 0-.52-4.624l-.357-2.99c-1.267-10.34-2.703-19.326-4.308-26.96l-.232-1.093 1.144-.248zM1.171.35v474.828H0V.35h1.17zm853.535 0v474.828h-1.171V.35h1.17z" fill="url(#q)" transform="translate(293 210)"/>
            <path d="M854.706 474.828V476H.586v-1.172h854.12zM651.279 354.593l7.771.552 3.386.244 6.684.489 9.811.734 6.398.49 3.155.245 6.225.49 3.069.246 6.052.491 5.938.492 5.822.492 5.708.493c.942.082 1.878.164 2.81.247l5.536.493 5.42.494 5.306.494 5.19.495 2.553.248 5.018.495 2.466.248 4.846.497 4.732.496 2.322.249 4.56.497c.75.083 1.495.166 2.236.25l4.387.498 2.15.249 4.215.499c1.386.166 2.753.333 4.1.5l3.985.5c.655.083 1.305.166 1.95.25l3.813.5c3.756.501 7.34 1.003 10.751 1.506l3.354.502 1.634.252 3.182.504c17.707 2.855 29.89 5.735 36.556 8.642l.58.26-.488 1.065c-7.082-3.25-21.222-6.479-42.41-9.682l-3.404-.506-3.52-.505-1.805-.253-3.697-.504a960.09 960.09 0 0 0-5.764-.757l-3.99-.503-2.038-.252-4.166-.503a1347.9 1347.9 0 0 0-6.467-.753l-4.457-.502-4.575-.501c-.772-.084-1.55-.168-2.331-.251l-4.75-.5-4.868-.501-4.984-.5-5.101-.5-5.219-.498-5.335-.499-5.452-.498-5.57-.498-5.685-.497-5.803-.497-2.946-.248-5.978-.496-9.187-.743-6.27-.495-6.388-.494-6.505-.494-9.976-.74-6.797-.493-7.825-.555-1.838-.121-1.855-.114-1.874-.107-1.892-.099-1.91-.092-1.93-.085-1.951-.077-1.97-.07-1.992-.063-2.012-.056-2.034-.049-3.092-.06-3.142-.042-2.125-.02-2.147-.013-3.267-.006-3.323.01-2.246.016-3.418.037-2.312.033-2.339.04-3.559.074-3.622.09-3.686.104-3.751.121-3.819.137-2.583.1-3.934.162-4.004.178-4.077.194-5.55.282-5.684.31-4.354.25-4.433.264-6.035.378-6.182.404-6.33.432-3.192.227-6.491.484-7.797.6-14.723 1.166-21.263 1.72-27.739 2.28-42.861 3.567-44.61 3.759-9.76.786-12.786 1.013-9.438.734-6.226.477-9.252.698-12.19.9-9.052.653-5.999.425-8.953.622-5.946.406-8.891.594-5.916.386-5.583.36c-4.651.296-9.302.587-13.96.871l-1.406.085-2.868.164-2.945.157-3.02.15-3.097.144-3.172.137-3.247.13-3.324.123-3.4.117-3.475.11-3.55.103-3.627.096-3.703.09-3.778.083-3.854.076-3.93.07-6.037.09-4.12.053-6.32.066-4.31.035-4.384.03-4.46.021-4.537.015-6.946.01-7.117-.005-7.288-.02-4.953-.022-7.572-.045-5.143-.04-5.218-.045-7.97-.08-8.14-.097-8.311-.111-5.635-.083-8.596-.137-8.765-.152-8.937-.167-9.106-.183-9.278-.197-12.635-.287-12.938-.315-6.617-.168.03-1.172 9.943.251 12.985.31 6.377.145 9.42.204 9.247.189 6.067.117 5.99.11 8.84.153 8.667.137 11.284.158 5.526.07 5.449.061 5.371.055 5.294.049 5.217.041 7.68.05 7.506.033 7.332.018 4.79.003 4.715-.003 6.926-.018 4.52-.02 6.636-.045 6.462-.06 4.21-.047 4.135-.056 4.056-.062 3.98-.068 5.823-.117 3.786-.086 3.708-.093 3.63-.1 3.555-.107 3.476-.113 3.399-.12 3.321-.128 3.245-.135 3.166-.14 3.09-.15 3.012-.154 2.935-.162c.482-.028.962-.055 1.438-.084l7.004-.43 8.372-.526 8.374-.541 11.188-.744 8.422-.574 8.462-.59 8.512-.607 11.447-.834 8.672-.647 11.702-.89 11.882-.924 12.09-.959 9.82-.795 56.918-4.786 43.985-3.645 26.78-2.184 17.695-1.414 11.565-.9 4.226-.32 2.543-.19 4.377-.313 4.767-.326 6.225-.412 6.077-.384 4.464-.271 5.828-.337 5.691-.31 2.795-.145 4.13-.204 5.393-.247 3.961-.168 3.892-.153 3.823-.136 3.756-.121 3.69-.105 3.627-.09 3.564-.074 3.502-.057 1.155-.016 3.423-.037 2.25-.015 3.327-.01 3.272.006 2.15.012 2.128.02 3.148.044 2.07.038 2.049.045 2.026.052 2.006.06 1.984.067 1.964.074 1.944.08 1.924.09 1.905.095 1.887.103 2.795.169 1.842.121zM618.783 247.38c113.303 0 191.595 12.27 234.915 36.849l1.302.748-.589 1.013c-42.389-24.696-119.805-37.186-232.21-37.434l-4.26-.002-2.545.014-1.716.018-2.6.042-1.753.038-2.661.07-1.795.057-1.813.064-1.83.071-2.783.122-1.88.091-1.899.098-2.888.162-2.938.18-2.988.197-3.04.214-2.058.153-3.133.243-3.191.262-3.251.279-3.313.296-3.376.315-3.442.332-3.509.35-3.579.37-4.883.519-3.748.41-5.116.576-5.256.608-7.591.908-18.772 2.38-32.36 4.204-58.252 7.602-3.938.502-6.307.79-6.247.771-6.19.756-6.137.739-6.086.723-6.039.706-5.995.691-2.982.34-5.936.667-5.9.652-5.868.637c-.975.105-1.95.21-2.922.313l-5.826.615-5.8.6-5.78.585-5.763.571-5.748.558-5.737.543-2.866.267-5.726.523-5.723.51-5.724.496-5.727.483-5.735.471c-1.913.155-3.827.308-5.744.459l-5.758.446-2.885.218-5.783.428-4.388.314-3.04.204-1.552.098-3.167.191-1.615.092-3.295.178c-.556.03-1.116.058-1.679.086l-3.422.166-3.507.157-1.786.076-3.634.144-3.72.137-1.892.065-3.847.123-3.932.116-4.017.107-4.102.098-4.188.09-6.44.12-4.4.069-4.484.06-4.57.053-4.655.044-4.74.036-4.824.027-4.91.02-4.995.01h-7.651l-5.207-.01-5.293-.02-5.377-.027-5.462-.035-5.548-.044-5.632-.053-8.608-.094-5.845-.073-8.927-.126-9.118-.144-9.309-.164-9.5-.182-9.693-.201-9.883-.22-6.695-.157-10.202-.252-10.393-.27-10.585-.29-7.163-.202-3.65-.106.034-1.172 10.882.31 7.145.197 10.556.28 10.361.26 6.799.162 10.035.227 9.84.209 9.646.189 9.45.17 9.254.15 9.06.132 5.931.077 5.845.068 5.758.06 5.67.051 5.585.043 5.498.034 5.41.026 7.954.022 5.194.005 7.628-.01 4.977-.017 4.89-.026 4.804-.034 4.717-.042 4.63-.052 4.543-.06c.75-.01 1.496-.021 2.239-.033l4.413-.072 4.326-.082 4.24-.09 4.153-.098 4.066-.106 2-.057 3.936-.12c.649-.02 1.294-.041 1.936-.063l3.805-.132 1.87-.07 3.676-.145 3.59-.154c2.363-.105 4.669-.216 6.917-.333l3.328-.18c2.19-.122 4.323-.25 6.397-.384l3.069-.205 1.501-.106 5.792-.422 5.772-.433 5.755-.446c.958-.075 1.915-.151 2.872-.228l5.736-.464c1.91-.157 3.82-.316 5.728-.477l5.723-.49 2.86-.25 5.721-.51 5.724-.522 5.73-.536 5.74-.55 5.753-.564 5.768-.578 2.891-.295 5.8-.6c.968-.1 1.937-.203 2.907-.305l5.837-.622 5.865-.637 2.945-.324 5.915-.659 5.952-.675 5.993-.69 6.037-.707 6.084-.723 6.134-.738 6.188-.756 6.245-.771 3.145-.393 6.12-.772 83.431-10.878 18.72-2.406 7.774-.975 2.634-.32 6.735-.798 3.933-.453 3.855-.436 3.778-.417 4.921-.528 3.607-.375 2.366-.24 3.491-.345 4.551-.431 2.233-.205 4.381-.384 2.15-.18 3.177-.256 3.119-.238 3.064-.22 3.01-.203 2.96-.186 2.909-.168 1.913-.102 1.893-.095 2.802-.128 2.759-.11 2.718-.093.897-.028 2.666-.07 1.757-.038 2.607-.042 1.719-.019 2.552-.014h.843zm233.079-57.799 2.915.355-.142 1.164-5.812-.706-5.752-.691-5.692-.675-5.633-.66-5.574-.645-8.248-.938-8.115-.903-5.336-.583-5.276-.567-5.217-.552-5.157-.537-5.097-.52-5.038-.506-4.979-.49-4.919-.475-2.437-.232-4.83-.452-4.77-.436-4.711-.42-4.652-.406-2.303-.197-4.562-.382c-.756-.063-1.509-.124-2.259-.185l-4.473-.36-4.413-.343-2.185-.166-4.324-.32c-.716-.053-1.429-.104-2.14-.155l-4.234-.297-4.176-.282-4.116-.267-2.035-.127-4.027-.243-3.967-.228-3.908-.213-3.848-.197-3.788-.181-3.73-.167-3.67-.15-3.61-.136-3.55-.12-3.491-.104-3.432-.089-1.693-.039-3.342-.065-3.283-.05-3.224-.036a673.94 673.94 0 0 0-1.589-.012l-3.134-.011c-1.035-.002-2.06 0-3.074.003l-3.015.02-2.956.034c-.488.007-.973.014-1.455.023l-2.975.058-4.593.106-4.586.12-4.582.138-4.583.153-4.589.169-3.064.122-4.608.197-4.625.213-4.646.23-1.554.081-4.682.253-3.139.178-3.154.187-4.763.293-4.805.312-4.852.33-3.263.229-4.939.36-3.325.25-5.038.39-5.104.41-5.175.427-5.248.447-3.543.31-5.382.478-5.469.5-3.696.343-5.621.532-7.65.74-7.833.776-6.002.606-8.181.84-6.275.655-10.737 1.138-48.826 5.28-10.613 1.12-9.676.997-7.013.702-7.603.736-5.11.478-4.226.384-2.765.245-4.071.35-3.982.332-3.894.312-3.808.292-3.725.272-3.645.252-3.566.233-3.49.213-3.416.194-3.344.174-3.276.154-2.146.092-3.166.12-2.075.07-2.047.062-2.021.053-1.996.043-1.97.035-2.908.036-1.91.013-1.887.005-10.81-.009-7.15-.014-7.105-.022-7.058-.03-7.013-.036-10.433-.07-6.899-.055-6.852-.062-6.807-.07-6.761-.077-6.715-.085-9.988-.14-6.6-.103-6.556-.11-6.51-.118-6.463-.126-6.418-.132-6.373-.14-6.326-.147-6.28-.154-9.336-.246-6.167-.173-6.12-.18-6.075-.187-6.03-.195-8.957-.306-5.915-.214-8.787-.333-5.8-.232-5.755-.24-5.709-.246-5.663-.253-5.618-.262-5.571-.268-5.526-.276-5.48-.283-5.435-.29-5.389-.298-5.343-.306-2.654-.155-5.275-.316-5.228-.324-5.183-.331-5.137-.338-5.092-.346-5.045-.353-5-.36-4.98-.37.088-1.17 5.003.372 5.049.364 5.095.356 2.566.176 5.165.345 5.213.337 5.259.33 2.647.163 5.329.318 5.376.312 2.705.153 5.446.3 5.492.292 5.54.285 5.585.278 5.633.27 5.679.263 5.726.255 5.772.247 5.82.24 5.865.233 5.913.225 5.96.217 6.005.21 6.053.203 6.099.195 6.146.188 6.193.18 6.239.172 6.286.165 6.333.158 6.38.15 9.656.211 6.496.131 9.831.183 6.613.113 10.007.154 6.73.094 10.181.127 6.846.075 10.357.098 6.963.057 10.532.07 7.08.037 10.706.043 7.197.018 10.882.014h4.589l2.85-.016 1.929-.022 1.953-.03 2.977-.063 2.018-.052 2.044-.061 3.117-.108 2.114-.083 2.142-.092 3.27-.154 3.34-.173 2.266-.127 3.46-.206 3.535-.226 2.4-.162 2.435-.17 3.72-.272 3.804-.292 3.888-.311 3.977-.331 2.7-.232 4.128-.363 5.65-.516 7.43-.705 5.81-.57 10.318-1.046 12.562-1.317 49.083-5.306 7.478-.798 10.904-1.144 8.812-.906 6.881-.695 8.4-.83 6.567-.634 6.439-.608 7.878-.723 7.7-.683 3.033-.262 5.991-.505 4.43-.362 5.83-.462 4.315-.33 5.687-.42 4.217-.298 5.564-.377 4.134-.267 4.102-.254 4.074-.242 2.701-.153 4.033-.22 4.012-.207 3.993-.195 3.979-.182 3.965-.17 5.273-.207 4.376-.156c6.116-.208 12.222-.372 18.365-.496a534.34 534.34 0 0 1 7.286-.095l3.016-.012a663.64 663.64 0 0 1 9.399.056l3.25.049 3.307.064 3.367.079 3.424.094 3.483.11 3.54.124 1.793.068 3.628.147 3.687.163 1.865.086 3.775.186 3.832.2 1.938.105 3.92.223 3.978.238 4.037.254 4.094.268c.688.046 1.377.092 2.07.14l4.182.29 4.24.307 2.142.159 4.328.328 4.387.344 4.444.36 4.503.374 6.864.59 4.648.411 4.707.428 2.375.219 4.795.45 4.852.465 4.911.48 4.97.495 5.027.51 5.086.526 7.738.817 5.231.563 7.957.874 5.377.601 5.436.616 5.494.632 5.552.646 5.61.662 5.67.677 5.727.692zm-99.247-95.517 11.158.027 13.314.06 12.14.08 7.143.057 9.14.081 15.109.158 15.708.189 16.307.22 2.08.03-.017 1.173-18.383-.251-15.705-.19-11.386-.12-12.858-.118-14.133-.105-11.876-.065-11.417-.041-10.959-.017-9.63.006-10.082.03-8.276.047-9.23.076-7.546.084-6.031.085-5.798.096-5.564.11-3.226.071-6.199.157-4.909.145-24.105.75-18.763.57-27.294.81-26.296.753-16.99.471-20.64.554-12.072.313-15.739.396-19.11.46-14.846.34-10.883.24-10.67.225-10.46.212-10.253.197-13.355.242-13.002.218-9.525.147-9.333.133-12.151.157-5.953.07-11.665.12-8.541.074-11.118.078-8.14.043-7.973.029-7.81.016-5.118.003-11.25-.007-11.124-.02-10.998-.034-10.87-.047-7.177-.039-10.66-.07-10.532-.082-6.952-.063-6.895-.069-6.839-.074-10.153-.124-10.026-.136-6.613-.099-6.558-.104-9.73-.169-9.604-.181-6.332-.129-9.393-.204-6.191-.143-9.182-.226-6.05-.159-8.971-.248-5.91-.174-5.854-.179-5.797-.185-5.74-.191-5.686-.198-5.628-.203-5.572-.21-5.516-.214-5.46-.221-5.403-.227-5.346-.233-5.291-.24-5.234-.245-5.178-.25-5.122-.258-5.065-.263-7.493-.405-4.924-.278-4.869-.284-4.812-.29-4.756-.296-2.38-.151.075-1.17 4.774.301 4.83.296 4.89.29 4.945.283 7.527.414 7.656.4 5.176.259 5.233.253 5.29.247 5.349.24 5.406.235 5.463.229 5.52.222 5.578.217 5.636.21 5.692.204 8.648.295 8.776.281 8.905.268 6.01.17 6.066.165 9.207.235 9.336.222 9.466.208 6.383.131 6.44.125 9.767.176 9.896.162 6.67.1 6.727.095 10.198.13 10.328.117 6.957.07 7.014.064 10.629.085 10.758.07 10.888.058 11.017.043 11.146.03 7.503.012 11.361.007 7.702-.007 7.863-.02 8.027-.033 8.195-.048 8.365-.06 5.674-.049 11.584-.114 8.897-.101 12.15-.157 12.485-.181 9.588-.152 9.783-.165 13.354-.242 10.253-.198 10.459-.211 10.668-.225 10.881-.24 14.845-.34 19.109-.46 11.765-.295 16.044-.414 20.638-.554 12.7-.35 17.312-.49 26.79-.782 18.42-.552 18.876-.577 21.278-.662 5.005-.14 5.239-.127 5.473-.114 5.706-.102 3.536-.055 7.325-.097 5.07-.055 7.886-.066 9.626-.055 10.084-.03c.492-.002.984-.003 1.478-.003h12.798zM854.705 0v1.172H.586V0h854.12z" fill="url(#r)" transform="translate(293 210)"/>
        </g>
        <g fill-rule="nonzero">
            <path d="m293.527 685.31.473.96L.473 896.31 0 895.347l293.527-210.039zm1.243-94.08.222 1.13L.23 698.31l-.222-1.13L294.77 591.23zm-.338-94.887.07 1.167L.154 532.647l-.07-1.167 294.348-35.137zM.154 365.167l293.934 35.137-.07 1.167L.084 366.334l.07-1.167zM.238 191.31 295 305.63l-.238 1.122L0 192.431l.238-1.122zM.472.31 294 210.345l-.472.964L0 1.273.472.31z" fill="url(#s)" opacity=".4" transform="translate(0 -.31)"/>
            <path d="m1438.527 685 .473.961L1145.473 896l-.473-.961L1438.527 685zm1.243-94.079.222 1.129L1145.23 698l-.222-1.128 294.762-105.95zm-.338-94.887.07 1.167-294.348 35.136-.07-1.167 294.348-35.136zm-294.278-131.176 293.934 35.136-.07 1.167-293.934-35.136.07-1.167zm.084-173.858L1440 305.32l-.238 1.122L1145 192.122l.238-1.122zm.234-191L1439 210.036l-.472.964L1145 .964l.472-.964z" fill="url(#t)" opacity=".5" transform="matrix(-1 0 0 1 2585 -.31)"/>
        </g>
        <g opacity=".5" transform="translate(111 135)">
            <mask id="w" fill="#fff">
                <use xlink:href="#u"/>
            </mask>
            <use fill-opacity="0" fill="#000" xlink:href="#u"/>
            <ellipse fill="#3D0FBB" opacity=".9" filter="url(#v)" mask="url(#w)" cx="176.507" cy="192.258" rx="52.19" ry="45.72"/>
            <path d="M201.688 260.438c39.176 0 78.612 92.596 78.612 62.533 0-30.064 52.272-172.916 13.096-172.916s-137.413-1.928-137.413 28.136c0 30.063 6.53 82.247 45.705 82.247z" fill="#A91889" filter="url(#x)" mask="url(#w)"/>
            <path d="M209.346 248.53c39.187 0 70.954-30.764 70.954-68.713s-21.124 0-60.311 0-81.598-37.949-81.598 0 31.767 68.712 70.955 68.712z" fill="#160FBB" opacity=".9" filter="url(#y)" mask="url(#w)"/>
            <ellipse fill="#0A0A0A" filter="url(#z)" mask="url(#w)" cx="185.89" cy="184.052" rx="52.19" ry="45.72"/>
        </g>
        <g opacity=".5" transform="translate(291 209)">
            <mask id="C" fill="#fff">
                <use xlink:href="#A"/>
            </mask>
            <use fill-opacity="0" fill="#000" xlink:href="#A"/>
            <ellipse fill="#3D0FBB" opacity=".9" filter="url(#B)" mask="url(#C)" cx="-4.103" cy="118.347" rx="52.172" ry="45.698"/>
            <path d="M21.07 186.495c39.162 0 78.585 92.553 78.585 62.503 0-30.05 52.254-172.834 13.091-172.834-39.162 0-137.367-1.927-137.367 28.122 0 30.05 6.527 82.209 45.69 82.209z" fill="#A91889" filter="url(#D)" mask="url(#C)"/>
            <path d="M28.724 174.592c39.174 0 70.931-30.75 70.931-68.68 0-37.931-21.117 0-60.291 0-39.174 0-81.57-37.931-81.57 0 0 37.93 31.756 68.68 70.93 68.68z" fill="#160FBB" opacity=".9" filter="url(#E)" mask="url(#C)"/>
            <ellipse fill="#0A0A0A" filter="url(#F)" mask="url(#C)" cx="5.276" cy="110.145" rx="52.172" ry="45.698"/>
        </g>
        <g opacity=".5" fill-rule="nonzero">
            <path fill="url(#G)" d="m.91 0 205.488 207.27-.91.73L0 .73z" transform="translate(183 3)"/>
            <path fill="url(#H)" d="M183.054 1.147 300.212 207.26l-1.086.434L181.968 1.582z" transform="translate(183 3)"/>
            <path fill="url(#I)" d="m326.6.232 68.537 207.27-1.14.266L325.46.498z" transform="translate(183 3)"/>
            <path fill="url(#J)" d="m475.991.334 15.23 207.271-1.17.06L474.822.396z" transform="translate(183 3)"/>
            <path fill="url(#K)" transform="matrix(-1 0 0 1 2126.602 3)" d="M869.512 0 1075 207.27l-.91.73L868.602.73z"/>
            <path fill="url(#L)" transform="matrix(-1 0 0 1 1850.82 3)" d="M775.874.147 893.032 206.26l-1.086.434L774.788.582z"/>
            <path fill="url(#M)" transform="matrix(-1 0 0 1 1612.403 3)" d="m681.003.232 68.537 207.27-1.14.266L679.863.498z"/>
            <path fill="url(#N)" transform="matrix(-1 0 0 1 1366.957 3)" d="m584.948.334 15.23 207.271-1.17.06L583.779.396z"/>
        </g>
        <g fill-rule="nonzero">
            <path fill="url(#O)" transform="matrix(1 0 0 -1 193 893)" d="m.911 0 195.694 207.27-.911.73L0 .73z"/>
            <path fill="url(#P)" transform="matrix(1 0 0 -1 193 894.17)" d="M173.094 1.17 290.31 207.566l-1.087.435L172.007 1.606z"/>
            <path fill="url(#Q)" transform="matrix(1 0 0 -1 193 893)" d="m316.038 0 67.976 207.734-1.13.266L314.906.266z"/>
            <path fill="url(#R)" transform="matrix(1 0 0 -1 193 891.83)" d="m466.005 0 15.228 206.769-1.17.06L464.835.061z"/>
            <path fill="url(#S)" opacity=".5" transform="rotate(180 1053.198 446.5)" d="M859.306 0 1055 207.27l-.911.73L858.395.73z"/>
            <path fill="url(#T)" transform="rotate(180 920.342 447.085)" d="m765.777 1.17 117.216 206.395-1.087.435L764.69 1.606z"/>
            <path fill="url(#U)" transform="rotate(180 800.868 446.5)" d="m670.945 0 67.977 207.734-1.131.266L669.814.266z"/>
            <path fill="url(#V)" transform="rotate(180 678.466 445.915)" d="m574.937 0 15.228 206.769-1.17.06L573.767.061z"/>
        </g>
        <g opacity=".7" transform="translate(807 6)">
            <mask id="Y" fill="#fff">
                <use xlink:href="#W"/>
            </mask>
            <use fill-opacity="0" fill="#000" xlink:href="#W"/>
            <path d="M112.957 319.103c45.253 0 187.872-30.068 187.872-64.991 0-34.924-36.684-63.236-81.938-63.236-45.253 0-58.527-46.634-58.527-11.71 0 14.776 6.346 53.023-9.364 79.63-21.423 36.281-64.15 60.307-38.043 60.307z" fill="#A91889" filter="url(#X)" mask="url(#Y)"/>
            <path d="M290.295 348.964c45.253 0 81.938-35.651 81.938-79.63 0-43.977 11.892-100.707-33.36-100.707-45.254 0-130.516 56.73-130.516 100.708s36.684 79.63 81.938 79.63z" fill="#160FBB" opacity=".5" filter="url(#Z)" mask="url(#Y)"/>
            <path d="M187.881 400.49c41.303 0 91.879-25.058 91.879-65.197s-23.333-69.471-64.636-69.471c-41.302 0-119.12 51.777-119.12 91.916 0 40.139 50.575 42.751 91.877 42.751z" fill="#160FBB" opacity=".8" filter="url(#aa)" mask="url(#Y)"/>
            <path d="M255.764 327.886c31.444 0 25.863-32.44 45.065-53.281 16.132-17.509 76.086-58.632 76.086-83.729 0-54.972-63.292-62.064-121.151-62.064-57.86 0-104.764 44.565-104.764 99.537 0 54.973 46.904 99.537 104.764 99.537z" fill="#5E1396" opacity=".5" filter="url(#ab)" mask="url(#Y)"/>
            <path d="M202.504 209.613c28.768 0 52.674 55.216 52.674 19.322 0-35.894.09-64.992-28.678-64.992S151 193.041 151 228.935c0 35.894 22.736-19.322 51.504-19.322z" fill="#DB1AB0" opacity=".4" filter="url(#ac)" mask="url(#Y)"/>
        </g>
        <g opacity=".6" transform="translate(808 210)">
            <mask id="af" fill="#fff">
                <use xlink:href="#ad"/>
            </mask>
            <use fill-opacity="0" fill="#000" xlink:href="#ad"/>
            <path d="M111.966 115.579c45.325 0 188.172-30.129 188.172-65.123 0-34.995-36.744-63.363-82.069-63.363s-58.62-46.728-58.62-11.734c0 14.805 6.355 53.13-9.38 79.79-21.457 36.355-64.253 60.43-38.103 60.43z" fill="#A91889" filter="url(#ae)" mask="url(#af)"/>
            <path d="M289.586 145.5c45.326 0 82.07-35.723 82.07-79.79 0-44.067 11.91-100.912-33.415-100.912S207.517 21.643 207.517 65.71c0 44.067 36.744 79.79 82.07 79.79z" fill="#160FBB" opacity=".5" filter="url(#ag)" mask="url(#af)"/>
            <path d="M187.01 197.129c41.368 0 92.024-25.108 92.024-65.328s-23.37-69.611-64.738-69.611c-41.369 0-119.312 51.881-119.312 92.101s50.657 42.838 92.025 42.838z" fill="#160FBB" opacity=".8" filter="url(#ah)" mask="url(#af)"/>
            <path d="M255 124.379c31.495 0 25.904-32.505 45.138-53.39 16.157-17.543 76.207-58.749 76.207-83.896 0-55.084-63.393-62.19-121.345-62.19S150.069-30.443 150.069 24.641c0 55.084 46.98 99.738 104.931 99.738z" fill="#5E1396" opacity=".5" filter="url(#ai)" mask="url(#af)"/>
            <path d="M201.655 5.867c28.814 0 52.759 55.327 52.759 19.36 0-35.966.09-65.122-28.724-65.122s-75.621 29.156-75.621 65.123c0 35.966 22.772-19.361 51.586-19.361z" fill="#DB1AB0" opacity=".4" filter="url(#aj)" mask="url(#af)"/>
        </g>
    </g>
</svg>
