<?xml version="1.0" encoding="UTF-8"?>
<svg width="32px" height="35px" viewBox="0 0 32 35" version="1.1" xmlns="http://www.w3.org/2000/svg" xmlns:xlink="http://www.w3.org/1999/xlink">
    <title>hand2</title>
    <defs>
        <linearGradient x1="10.4220569%" y1="50%" x2="82.011093%" y2="92.8096314%" id="linearGradient-1">
            <stop stop-color="#A91889" offset="0%"></stop>
            <stop stop-color="#150FBA" offset="100%"></stop>
        </linearGradient>
    </defs>
    <g id="home" stroke="none" stroke-width="1" fill="none" fill-rule="evenodd">
        <g id="1440-tino-home-copy-2" transform="translate(-1091.000000, -1392.000000)">
            <g id="Let’s-brainstorm-on-your-project-" transform="translate(-128.000000, 1050.000000)">
                <g id="hand2" transform="translate(1219.975203, 342.500000)">
                    <path d="M8.94713789,31.5792932 C4.08878509,28.8802083 1.3897002,24.831581 0.849883226,19.4334112 C0.0401577597,11.3361565 -1.57913218,2.4291764 4.08878509,2.4291764 C5.70823602,2.4291764 6.78786998,2.96899338 7.32768695,4.04862733 C7.86750393,1.88935942 8.94713789,0.809725466 10.5665888,0.809725466 C12.1860397,0.809725466 13.2656737,1.34954244 13.8054907,2.4291764 C13.8054907,0.809725466 14.8851246,0 17.0443925,0 C19.2036605,0 20.5532029,0.539816977 21.0930199,1.61945093 C22.1726538,0.539816977 23.5221963,0 25.1416472,0 C27.5708236,0 28.3805491,3.23890186 28.3805491,5.66807826 C28.3805491,7.28752919 28.1106406,9.4467971 27.5708236,12.145882 C29.1902745,13.7653329 29.7300915,16.1945093 29.1902745,19.4334112 C28.3805491,24.291764 25.9513727,30.7695677 21.0930199,32.3890186 C17.854118,33.4686526 13.8054907,33.1987441 8.94713789,31.5792932 Z" id="Path-13" fill="url(#linearGradient-1)"></path>
                    <path d="M7.32768695,2.4291764 C8.40732091,5.66807826 8.13741242,8.09725466 6.51796149,9.71670559 C4.89851056,11.3361565 3.27905962,11.606065 1.65960869,10.5264311" id="Path-15" stroke="#0E0E0E" stroke-linecap="round"></path>
                    <path d="M13.8054907,1.61945093 C15.0686827,3.72477091 15.3465691,6.63981636 14.63915,8.74513635 M9.75686335,11.3361565 C9.20298288,11.0529425 8.66316591,10.243217 8.13741242,8.90698013" id="Shape" stroke="#0E0E0E" stroke-linecap="round"></path>
                    <path d="M21.0930199,0.809725466 C22.1726538,4.58844431 22.1726538,7.55743768 21.0930199,9.71670559" id="Path-17" stroke="#0E0E0E" stroke-linecap="round"></path>
                    <path d="M22.7124708,21.8625876 C22.7124708,18.0838687 21.3629284,16.1945093 18.6638435,16.1945093 C13.8054907,16.1945093 10.5665888,14.073857 10.5665888,11.3361565 C10.5665888,8.09725466 15.4249416,9.71670559 19.4735689,9.71670559 C25.417363,9.71670559 30,12.5739816 30,16.1945093" id="Path-14" stroke="#0A0A0A"></path>
                </g>
            </g>
        </g>
    </g>
</svg>