<?xml version="1.0" encoding="UTF-8"?>
<svg width="60px" height="60px" viewBox="0 0 60 60" version="1.1" xmlns="http://www.w3.org/2000/svg" xmlns:xlink="http://www.w3.org/1999/xlink">
    <!-- Generator: Sketch 55.2 (78181) - https://sketchapp.com -->
    <title>logo-top-white</title>
    <desc>Created with Sketch.</desc>
    <g id="Home" stroke="none" stroke-width="1" fill="none" fill-rule="evenodd">
        <g id="tino-menu" transform="translate(-50.000000, -50.000000)" fill="#191919">
            <g id="menu">
                <path d="M76.1654124,93.4142251 L76.1654124,84.1571425 L83.6224907,93.4142251 L76.1654124,93.4142251 Z M83.7274548,72.8194285 L83.7241295,72.8194285 L83.7241295,82.0311133 L76.2103764,72.7595729 L76.1596293,72.8019345 L76.1596293,72.7076692 L68.0318507,72.7076692 L68.0318507,66.251509 L91.8555225,66.251509 L91.8555225,72.7076692 L83.7274548,72.7076692 L83.7274548,72.8194285 Z M80.0000723,56.2349548 C66.8749322,56.2349548 56.2349548,66.8749322 56.2349548,80.0000723 C56.2349548,93.1252123 66.8749322,103.765045 80.0000723,103.765045 C93.1252123,103.765045 103.765045,93.1252123 103.765045,80.0000723 C103.765045,66.8749322 93.1252123,56.2349548 80.0000723,56.2349548 L80.0000723,56.2349548 Z M80.0000723,110 C63.4315022,110 50,96.5684978 50,80.0000723 C50,63.4315022 63.4315022,50 80.0000723,50 C96.5686423,50 110,63.4315022 110,80.0000723 C110,96.5684978 96.5686423,110 80.0000723,110 L80.0000723,110 Z" id="logo-top-white"></path>
            </g>
        </g>
    </g>
</svg>