<?xml version="1.0" encoding="UTF-8"?>
<svg width="88px" height="86px" viewBox="0 0 88 86" version="1.1" xmlns="http://www.w3.org/2000/svg" xmlns:xlink="http://www.w3.org/1999/xlink">
    <title>chat-2</title>
    <g id="Contacts" stroke="none" stroke-width="1" fill="none" fill-rule="evenodd">
        <g id="ui-tino-contact" transform="translate(-182.000000, -2571.000000)" fill="#FFFFFF">
            <g id="banner-2" transform="translate(131.000000, 2572.000000)">
                <g id="chat-2" transform="translate(95.761106, 42.000000) rotate(-20.000000) translate(-95.761106, -42.000000) translate(63.761106, 10.000000)">
                    <path d="M32,-1 C13.7746033,-1 -1,13.7746033 -1,32 L-0.996103904,32.5111288 C-0.868934411,40.8491443 2.36631777,48.6672952 7.968,54.617 L-2.41421356,65 L32,65 L32.5372796,64.9956801 C50.5406057,64.7038165 65,50.0220775 65,32 L64.9956801,31.4627204 C64.7038165,13.4593943 50.0220775,-1 32,-1 Z M32,1 C48.9297251,1 62.7217741,14.5831781 62.9958443,31.4870328 L63.0000328,32.0081011 C63.0000328,48.9297251 49.4168219,62.7217741 32.5129672,62.9958443 L31.9918989,63.0000328 L2.414,63.0000328 L10.7867966,54.627417 L10.0796898,53.9203102 C4.30293319,48.1435536 1,40.3345425 1,32 C1,14.8791728 14.8791728,1 32,1 Z" id="Combined-Shape" fill-rule="nonzero"></path>
                    <path d="M20,30 C21.1045695,30 22,30.8954305 22,32 C22,33.1045695 21.1045695,34 20,34 C18.8954305,34 18,33.1045695 18,32 C18,30.8954305 18.8954305,30 20,30 Z M32,30 C33.1045695,30 34,30.8954305 34,32 C34,33.1045695 33.1045695,34 32,34 C30.8954305,34 30,33.1045695 30,32 C30,30.8954305 30.8954305,30 32,30 Z M44,30 C45.1045695,30 46,30.8954305 46,32 C46,33.1045695 45.1045695,34 44,34 C42.8954305,34 42,33.1045695 42,32 C42,30.8954305 42.8954305,30 44,30 Z" id="dots"></path>
                </g>
            </g>
        </g>
    </g>
</svg>