<?xml version="1.0" encoding="UTF-8"?>
<svg width="67px" height="66px" viewBox="0 0 67 66" version="1.1" xmlns="http://www.w3.org/2000/svg" xmlns:xlink="http://www.w3.org/1999/xlink">
    <title>chat-1</title>
    <g id="Contacts" stroke="none" stroke-width="1" fill="none" fill-rule="evenodd" opacity="0.248872">
        <g id="ui-tino-contact" transform="translate(-139.000000, -2970.000000)" fill="#FFFFFF" fill-rule="nonzero">
            <g id="banner-2" transform="translate(131.000000, 2572.000000)">
                <g id="chat-1" transform="translate(41.700799, 431.342020) rotate(20.000000) translate(-41.700799, -431.342020) translate(15.700799, 406.342020)">
                    <path d="M25,9.09494702e-13 C11.3468978,9.09494702e-13 0.22438232,10.9540728 0.00334672679,24.5869048 L3.28147089e-05,24.9918989 C3.28147089e-05,38.6531022 10.9540728,49.7756177 24.5869048,49.9966533 L24.9918989,50 L51.4142136,50 L43.37,41.956 L43.6231694,41.679269 C47.6940376,37.1390051 50,31.2509826 50,25 C50,11.1928813 38.8071187,9.09494702e-13 25,9.09494702e-13 Z M25,2 C37.7025492,2 48,12.2974508 48,25 C48,31.1839212 45.5496041,36.9773078 41.263456,41.263456 L40.5563492,41.9705627 L46.585,48 L25,48 L24.6112172,47.9968175 C12.0778565,47.7935753 2,37.5607498 2,25 L2.0031825,24.6112172 C2.20642474,12.0778565 12.4392502,2 25,2 Z" id="Combined-Shape"></path>
                </g>
            </g>
        </g>
    </g>
</svg>