<svg xmlns="http://www.w3.org/2000/svg" width="60" height="60" viewBox="0 0 60 60">
    <g fill="none" fill-rule="evenodd">
        <g fill="#FFF7E7">
            <g>
                <g>
                    <path d="M26.165 53.414v-9.257l7.457 9.257h-7.457zm7.562-20.595h-.003v9.212L26.21 32.76l-.05.042v-.094h-8.128v-6.456h23.824v6.456h-8.129v.111zM30 16.235C16.875 16.235 6.235 26.875 6.235 40S16.875 63.765 30 63.765 53.765 53.125 53.765 40 43.125 16.235 30 16.235zM30 70C13.432 70 0 56.568 0 40c0-16.568 13.432-30 30-30 16.569 0 30 13.432 30 30 0 16.568-13.431 30-30 30z" transform="translate(-50.000000, -60.000000) translate(-302.265369, 0.000000) translate(352.265369, 50.000000)"/>
                </g>
            </g>
        </g>
    </g>
</svg>
