<?xml version="1.0" encoding="UTF-8"?>
<svg width="154px" height="56px" viewBox="0 0 154 56" version="1.1" xmlns="http://www.w3.org/2000/svg" xmlns:xlink="http://www.w3.org/1999/xlink">
    <!-- Generator: Sketch 64 (93537) - https://sketch.com -->
    <title>Ford_logo@2x</title>
    <desc>Created with Sketch.</desc>
    <g id="Page-1" stroke="none" stroke-width="1" fill="none" fill-rule="evenodd">
        <g id="Ford_logo" transform="translate(0.296170, 0.583943)" fill="#FFF7E7" fill-rule="nonzero">
            <path d="M108.446537,33.8092174 C108.468059,33.9469565 108.648841,34.0789565 108.823885,34.1413696 C108.88845,34.1628913 108.920015,34.2059348 108.85258,34.3522826 C108.353276,35.4227022 107.894074,36.0398022 107.268078,36.9699 C106.692013,37.829263 106.043348,38.4998087 105.258091,39.1447435 C104.073463,40.124987 102.42827,41.1920348 101.068239,40.4747152 C100.464196,40.1612152 100.202778,39.3156978 100.214472,38.6312348 C100.243167,36.7064739 101.099446,34.7304196 102.680576,32.7883696 C104.608135,30.4153109 106.739002,29.1844826 108.137485,29.8572522 C109.584391,30.5473826 109.122678,32.222563 108.474659,33.5374696 C108.424441,33.6393391 108.424441,33.7254261 108.445963,33.8086435 M123.972822,18.8114348 C124.076843,18.6277826 123.967298,18.4936304 123.735365,18.4936304 C122.526848,18.4936304 120.941198,18.4963565 119.681961,18.4963565 C119.382091,18.4963565 119.227135,18.5322261 119.085809,18.8120087 C118.620939,19.7025065 112.956704,28.1913978 111.902426,29.8398913 C111.724513,30.0909783 111.507861,30.0558261 111.482752,29.7681522 C111.375861,28.7890565 110.530343,27.6634696 109.198148,27.1249239 C108.182896,26.7131413 107.190385,26.6385326 106.158417,26.7755543 C104.295424,27.0259239 102.635739,28.0086065 101.176565,29.1169761 C98.9772587,30.7888565 97.0797587,32.9559522 94.6302978,34.5570978 C93.2931522,35.4287283 91.4619391,36.1889478 90.2366348,35.05425 C89.127763,34.0261565 89.2530913,31.7427 90.9497217,29.9766261 C91.1283522,29.7915391 91.3428522,29.9479304 91.3091348,30.112213 C91.1491565,30.9108848 91.3450043,31.7051087 91.9519174,32.2620196 C92.69205,32.9256065 93.75135,33.0005022 94.6580609,32.5575848 C95.7279065,32.0274326 96.3567,31.003787 96.5399217,29.8419717 C96.8232913,28.0397413 95.4360717,26.4502174 93.7001283,26.3226652 C92.2899522,26.2236652 90.9376696,26.7143609 89.6199652,27.8019261 C88.9592478,28.350013 88.5840522,28.754837 88.01265,29.5674261 C87.8734761,29.7675783 87.6596935,29.7876652 87.66615,29.4921 C87.7307152,27.1846826 86.7773022,25.8864913 84.8697587,25.8441652 C83.3889196,25.8082957 81.8071435,26.6121326 80.5740913,27.5951739 C79.2224543,28.6806587 78.0406239,30.1191717 76.7735674,31.4708804 C76.6157413,31.6373152 76.4787196,31.6294239 76.4342413,31.3065978 C76.3983717,29.7777652 76.0116978,28.2969261 75.3042065,27.2453739 C75.053837,26.8795043 74.5267696,26.6987217 74.0839957,26.9455043 C73.8795391,27.0574174 73.1683891,27.3845478 72.6504326,27.8014957 C72.3936065,28.0131261 72.2931717,28.3194522 72.407237,28.7120804 C73.0901935,30.9961109 72.9402587,33.5930674 72.0133891,35.7863478 C71.1624196,37.795187 69.5088326,39.606887 67.5651326,40.220113 C66.2847326,40.6261565 64.9536848,40.4274391 64.1299761,39.2922391 C62.9987935,37.7256 63.4556283,35.0010196 65.1419283,32.7387261 C66.630013,30.7466022 68.7826174,29.4811957 70.9296261,28.6663826 C71.1821478,28.5688174 71.2345174,28.406687 71.1627783,28.192187 C71.0465609,27.8392304 70.8600391,27.3584348 70.784713,27.1390565 C70.5874304,26.6146435 70.036187,26.5299913 69.3628435,26.6031652 C67.8028043,26.7846652 66.3954261,27.3191217 65.005337,28.063487 C61.36515,30.0127826 59.5401065,33.7854717 58.7403587,35.8037804 C58.3551196,36.7734065 58.025837,37.3782391 57.6002804,37.9145609 C57.0263674,38.6358261 56.305963,39.2924543 54.9887609,40.4492478 C54.8696739,40.5554217 54.7807174,40.7763783 54.8811522,40.9822696 C55.0153043,41.2606174 55.700413,42.228163 55.8936783,42.3144652 C56.1081783,42.4199217 56.357113,42.2714217 56.4568304,42.2011174 C57.3785348,41.5762696 58.4813087,40.5859826 59.0209304,39.9142891 C59.2103217,39.6840065 59.4047348,39.7808543 59.5051696,40.1302239 C60.0087783,41.9269304 61.327487,43.3939239 63.1509522,44.0076522 C66.488687,45.1332391 69.9506022,43.5040435 72.5637717,40.6676935 C74.2245326,38.8648891 74.8237696,37.7052978 75.4603826,36.9172435 C76.5391957,35.5806 78.6672652,32.5904413 81.2018804,30.6706304 C82.1314043,29.9625652 83.2313087,29.422513 83.7844174,29.7812087 C84.2284826,30.0688826 84.3719609,30.7374913 83.6595913,32.0328848 C81.0753326,36.7518848 77.2731587,42.2961717 76.5758543,43.6406348 C76.4481587,43.873787 76.5615065,44.0574391 76.8039848,44.0574391 C78.1562674,44.0507674 79.4967848,44.0540674 80.724313,44.0540674 C80.9287696,44.0468935 81.0198783,43.950763 81.1224652,43.8065674 C83.1056935,40.7022 84.971987,37.7476239 86.9725043,34.6928283 C87.0844174,34.512763 87.1877217,34.6497848 87.1920261,34.7286978 C87.2350696,35.4374804 87.4072435,36.4067478 87.8283522,37.0433609 C88.5846261,38.2201696 89.6561935,38.7258587 90.8446957,38.7336065 C91.7903609,38.7479543 92.2687891,38.6008891 93.2885609,38.2199543 C94.1183674,37.9121935 94.7844652,37.5083022 95.29575,37.1427913 C95.5941848,36.9347478 95.6465543,37.2826826 95.6393804,37.3357696 C95.18025,39.8002239 95.7469891,42.7202935 98.1963065,43.9310348 C101.127496,45.3762913 104.34765,43.3449261 106.2006,41.5111304 C106.3821,41.3346522 106.576513,41.3533043 106.595165,41.7342391 C106.638209,42.434413 106.950991,43.2652239 107.530213,43.8466696 C109.083007,45.404987 112.216357,44.7873848 115.360826,42.353563 C117.379709,40.7952457 119.492139,38.5936435 121.400257,36.262337 C121.471996,36.1719457 121.523648,36.0270326 121.385909,35.8799674 C121.095365,35.5757935 120.674974,35.2278587 120.386798,34.959913 C120.255515,34.848 120.062537,34.8802826 119.952059,34.963787 C117.996091,36.8239826 116.235541,38.9453804 113.690954,40.6996891 C112.832667,41.2987109 111.464817,41.7818739 110.850515,40.9500587 C110.610907,40.6272326 110.638167,40.1809435 110.872037,39.5949783 C111.613891,37.7448261 123.360313,19.8609783 123.970096,18.8061978" id="path741"></path>
            <path d="M68.7078652,20.9694196 C68.7580826,21.2348543 68.861387,21.2865065 68.9819087,21.2642674 C69.580213,21.144463 70.2349761,20.6523326 70.6226543,20.081863 C70.9756109,19.5646239 71.1413283,18.8181783 70.7905239,18.5190978 C70.4777413,18.2500761 69.9684652,18.3261196 69.5909022,18.6597065 C68.8390043,19.3240109 68.6106587,20.2665196 68.7075783,20.9699217 M38.7693326,43.9907217 C34.389587,44.0191304 30.5310978,41.31435 30.0883239,36.6287804 C29.8422587,34.0323261 30.57615,31.7183087 32.0454391,29.811913 C33.3492261,28.1132022 35.5552761,26.70195 37.4226457,26.3571717 C38.0302761,26.2459761 38.8467391,26.3141283 39.1842717,26.718737 C39.7137065,27.3349761 39.5616196,28.0119065 39.0321848,28.2820043 C37.6075174,29.0093674 35.8932391,30.254687 35.0449957,31.9550478 C34.3570174,33.342913 34.217987,35.0154391 35.2688217,36.608837 C37.02765,39.2643326 41.9303739,39.3372913 46.4888935,35.1023152 C47.6178522,34.0658283 48.6281543,33.0700174 49.6551,31.8904109 C51.662863,29.5947587 52.3306826,28.7582087 54.9995217,25.0562543 C55.0282174,25.0132109 55.0425652,24.9572543 55.0282174,24.9299935 C55.0066957,24.8797761 54.9708261,24.8726022 54.8911957,24.8654283 C53.1095543,24.9156457 51.556187,25.4457978 50.0463652,26.5741109 C49.6116261,26.8911978 48.9859174,26.8467196 48.7119457,26.4291978 C48.4070543,25.9571543 48.6258587,25.342637 49.1273152,24.9956348 C51.5561152,23.3064652 54.209387,23.0001391 56.9189022,22.5428739 C56.9166783,22.5428739 57.1068587,22.5500478 57.2618152,22.3463087 C58.3740587,20.9188435 59.2139087,19.6311978 60.399613,18.1875913 C61.5942848,16.7228935 63.137537,15.3778565 64.3165696,14.3675543 C65.962337,12.9524283 67.017763,12.4762239 68.0904065,11.8925543 C68.3730587,11.7447717 68.054537,11.5682935 67.96845,11.5682935 C61.9796674,10.4427065 55.7547913,8.9862587 49.807187,11.1880761 C45.6880696,12.7252304 43.8830413,15.9916565 44.7513,18.1743196 C45.3689739,19.7225935 47.4051457,19.9743261 49.3115413,19.0414304 C50.8948957,18.2656435 52.3602391,17.0153022 53.39895,15.405763 C53.980037,14.5118935 55.2044804,15.1568283 54.5429022,16.7089761 C52.8024391,20.7996848 49.4775457,24.0444457 45.4274413,24.1814674 C41.9805913,24.2933804 39.7566783,21.7576174 39.7639239,18.6292891 C39.7782717,12.4590065 46.64715,8.39448261 53.866187,7.78685217 C62.5599652,7.06838478 70.7943261,9.38412391 79.426337,10.4311565 C86.0399674,11.2320522 92.3807022,11.2487674 99.028337,9.72165652 C99.8141674,9.55091739 100.365554,10.0523739 100.314333,10.8460957 C100.249767,11.9934196 99.3608478,13.0983457 97.171513,14.2924435 C94.6814478,15.6580696 92.0766,16.0724348 89.3559652,16.0946739 C82.7774152,16.1520652 76.6494587,13.5851674 70.30815,12.2072739 C70.3153239,12.4849043 70.3884978,12.8156217 70.156063,12.9908804 C66.6435,15.5817391 63.4683978,18.2127 61.3419783,21.9080543 C61.2702391,21.9934239 61.3061087,22.0744891 61.433087,22.0658804 C63.2793652,21.9675978 64.9396239,21.92025 66.6633,21.7825109 C66.9646043,21.7538152 66.9760826,21.6820761 66.9495391,21.4625543 C66.7967348,20.1888261 67.1690609,18.7363239 68.2894826,17.737213 C69.4362326,16.7090478 70.8720196,16.592113 71.8238543,17.3326043 C72.9059674,18.1758261 72.8101957,19.6923913 72.2184196,20.8296717 C71.6158109,21.9835957 70.6205739,22.6006957 69.6654391,22.90035 C69.6654391,22.90035 69.4645696,22.9433935 69.4947,23.1256109 C69.5305696,23.4168717 70.8336391,24.138137 70.9449783,24.3302543 C71.052587,24.5131891 70.9951957,24.7965587 70.7993478,25.0139283 C70.6616087,25.1717543 70.4456739,25.319537 70.1694783,25.3145152 C69.9463696,25.3100674 69.8107826,25.2327326 69.5252609,25.0784935 C68.9413043,24.7621239 68.2115022,24.2420152 67.7246804,23.6287891 C67.558963,23.421463 67.4743109,23.4171587 67.0603761,23.4401152 C65.1951587,23.5477239 62.2868543,23.8289413 60.3163957,24.0750065 C59.838613,24.1323978 59.7683087,24.2235065 59.6700261,24.3892239 C56.5283543,29.5698652 53.1739043,35.15655 49.4908891,38.8969565 C45.5405022,42.9074609 42.256787,43.9633891 38.7709109,43.9907217" id="path745"></path>
            <path d="M76.8536283,2.28288261 C35.8991217,2.28288261 2.70226957,13.5998739 2.70226957,27.4481804 C2.70226957,41.297563 35.8991217,52.6156304 76.8536283,52.6156304 C117.807561,52.6156304 151.002189,41.297563 151.002189,27.4481804 C151.002189,13.5998739 117.807561,2.28288261 76.8536283,2.28288261 M76.8536283,54.8962891 C34.4082391,54.8962891 -8.24229573e-13,42.6074478 -8.24229573e-13,27.4481804 C-8.24229573e-13,12.2866174 34.4082391,-1.27897692e-13 76.8536283,-1.27897692e-13 C119.295143,-1.27897692e-13 153.701159,12.2866174 153.701159,27.4481804 C153.701159,42.6074478 119.295143,54.8962891 76.8536283,54.8962891" id="path749"></path>
        </g>
    </g>
</svg>