<svg xmlns="http://www.w3.org/2000/svg" width="149" height="19" viewBox="0 0 149 19">
    <g fill="#FFF7E7" fill-rule="evenodd">
        <path d="M19.587 2.464h.001V4.51l-5.012 4.894-4.769 4.492-6.25-5.863v10.155H0V0l2.52 2.464 7.287 7.124 5.711-5.603h-.007L19.587 0zM29.565 0v18.187H25.98V0zM35.856 2.464V0l3.848 3.914 9.002 9.072.027-12.83h3.584v18.03h-2.992L40.652 9.47 35.854 4.61V2.464zM66.902 0c5.927 0 9.78 3.82 9.78 9.093 0 5.275-3.853 9.094-9.78 9.094h-7.275V0h7.275zm-.378 3.196H63.21V14.99h3.314c4.284 0 6.494-2.468 6.494-5.872 0-3.43-2.21-5.923-6.494-5.923z"/>
        <g>
            <path d="M100.046 15.722v2.465l-3.848-3.914L87.196 5.2l-.027 12.829h-3.584V0h2.992l8.673 8.718 4.798 4.858v2.146zM115.324 0c5.637 0 9.287 4.16 9.287 9.093 0 4.958-3.65 9.094-9.287 9.094-5.637 0-9.287-4.136-9.287-9.094 0-4.932 3.65-9.093 9.287-9.093zm0 3.14c-3.775 0-5.864 2.864-5.864 5.953 0 3.115 2.089 5.955 5.864 5.955s5.89-2.84 5.89-5.955c0-3.089-2.115-5.954-5.89-5.954zM129.111 15.722v-2.045l5.011-4.893 4.769-4.492 6.25 5.863V0h3.558v18.187l-2.521-2.465L138.89 8.6l-5.711 5.603h.008l-4.077 3.985z"/>
        </g>
    </g>
</svg>
