<svg width="50" height="46" viewBox="0 0 50 46" fill="none" xmlns="http://www.w3.org/2000/svg">
<path fill-rule="evenodd" clip-rule="evenodd" d="M16 18C16 16.8954 16.8954 16 18 16L32 16C33.1046 16 34 16.8954 34 18V44C34 45.1046 33.1046 46 32 46H18C16.8954 46 16 45.1046 16 44V18Z" fill="url(#paint0_linear)"/>
<path fill-rule="evenodd" clip-rule="evenodd" d="M5 16C5 16 15 17 25 17C35 17 45 16 45 16V24C45 26.2091 43.2091 28 41 28H9C6.79086 28 5 26.2091 5 24V16Z" fill="#160FBB"/>
<g filter="url(#filter0_ii)">
<path fill-rule="evenodd" clip-rule="evenodd" d="M0 0L13.5093 0C14.9227 0 16.2311 0.74587 16.9512 1.96203L19.7368 6.66667V0L50 0L44.7368 16C44.7368 16 34.8684 17 25 17C15.1316 17 5.26316 16 5.26316 16L0 0Z" fill="#A91889"/>
</g>
<defs>
<filter id="filter0_ii" x="-2" y="-2" width="53" height="20" filterUnits="userSpaceOnUse" color-interpolation-filters="sRGB">
<feFlood flood-opacity="0" result="BackgroundImageFix"/>
<feBlend mode="normal" in="SourceGraphic" in2="BackgroundImageFix" result="shape"/>
<feColorMatrix in="SourceAlpha" type="matrix" values="0 0 0 0 0 0 0 0 0 0 0 0 0 0 0 0 0 0 127 0" result="hardAlpha"/>
<feOffset dx="1" dy="1"/>
<feGaussianBlur stdDeviation="3"/>
<feComposite in2="hardAlpha" operator="arithmetic" k2="-1" k3="1"/>
<feColorMatrix type="matrix" values="0 0 0 0 0.783269 0 0 0 0 0.0739529 0 0 0 0 0.693948 0 0 0 1 0"/>
<feBlend mode="normal" in2="shape" result="effect1_innerShadow"/>
<feColorMatrix in="SourceAlpha" type="matrix" values="0 0 0 0 0 0 0 0 0 0 0 0 0 0 0 0 0 0 127 0" result="hardAlpha"/>
<feOffset dx="-2" dy="-2"/>
<feGaussianBlur stdDeviation="2.5"/>
<feComposite in2="hardAlpha" operator="arithmetic" k2="-1" k3="1"/>
<feColorMatrix type="matrix" values="0 0 0 0 0.0506014 0 0 0 0 0.0274733 0 0 0 0 0.595762 0 0 0 0.5 0"/>
<feBlend mode="normal" in2="effect1_innerShadow" result="effect2_innerShadow"/>
</filter>
<linearGradient id="paint0_linear" x1="16" y1="16" x2="16" y2="46" gradientUnits="userSpaceOnUse">
<stop stop-color="#131415"/>
<stop offset="1" stop-color="#160FBB"/>
</linearGradient>
</defs>
</svg>
