<svg width="57" height="40" xmlns="http://www.w3.org/2000/svg" xmlns:xlink="http://www.w3.org/1999/xlink">
    <defs>
        <filter x="-8.8%" y="-8.8%" width="117.5%" height="117.5%" filterUnits="objectBoundingBox" id="b">
            <feGaussianBlur stdDeviation="3" in="SourceAlpha" result="shadowBlurInner1"/>
            <feOffset dx="1" dy="1" in="shadowBlurInner1" result="shadowOffsetInner1"/>
            <feComposite in="shadowOffsetInner1" in2="SourceAlpha" operator="arithmetic" k2="-1" k3="1" result="shadowInnerInner1"/>
            <feColorMatrix values="0 0 0 0 0.783269025 0 0 0 0 0.0739529167 0 0 0 0 0.693947738 0 0 0 1 0" in="shadowInnerInner1" result="shadowMatrixInner1"/>
            <feGaussianBlur stdDeviation="2.5" in="SourceAlpha" result="shadowBlurInner2"/>
            <feOffset dx="-2" dy="-2" in="shadowBlurInner2" result="shadowOffsetInner2"/>
            <feComposite in="shadowOffsetInner2" in2="SourceAlpha" operator="arithmetic" k2="-1" k3="1" result="shadowInnerInner2"/>
            <feColorMatrix values="0 0 0 0 0.050601382 0 0 0 0 0.0274733392 0 0 0 0 0.595762391 0 0 0 0.5 0" in="shadowInnerInner2" result="shadowMatrixInner2"/>
            <feMerge>
                <feMergeNode in="shadowMatrixInner1"/>
                <feMergeNode in="shadowMatrixInner2"/>
            </feMerge>
        </filter>
        <filter x="-81.5%" y="-110.3%" width="263%" height="320.6%" filterUnits="objectBoundingBox" id="c">
            <feGaussianBlur stdDeviation="10" in="SourceGraphic"/>
        </filter>
        <filter x="-70.3%" y="-90%" width="240.6%" height="280%" filterUnits="objectBoundingBox" id="e">
            <feGaussianBlur stdDeviation="6" in="SourceGraphic"/>
        </filter>
        <circle id="a" cx="20" cy="20" r="20"/>
    </defs>
    <g fill="none" fill-rule="evenodd">
        <g transform="translate(16.364)">
            <mask id="d" fill="#fff">
                <use xlink:href="#a"/>
            </mask>
            <use fill="#A91889" xlink:href="#a"/>
            <use fill="#000" filter="url(#b)" xlink:href="#a"/>
            <ellipse fill="#160FBB" filter="url(#c)" mask="url(#d)" cx="35.2" cy="37.6" rx="18.4" ry="13.6"/>
            <ellipse fill="#DC1DB4" filter="url(#e)" mask="url(#d)" cx="-9.6" cy="22.8" rx="12.8" ry="10"/>
            <path d="M19.113 13.774a1 1 0 0 1 1.347-.43c.375.192.718.375 1.048.557l.49.273 1.054.604.148.077.105.049.074.025.03.006.03.004.084-.003.127-.018.186-.037 1.218-.286c.472-.109.946-.21 1.477-.313a1 1 0 0 1 .494 1.934l-.986.225-.54.115-.781.155-.385.07-.362.06-.326.044-.275.027c-.122.008-.22.008-.286-.003-.13-.022-.373-.12-.673-.262l-.384-.188-.634-.329-1.037-.564-.731-.402a5.729 5.729 0 0 0-.08-.043 1 1 0 0 1-.432-1.347z" fill="#090909" fill-rule="nonzero" mask="url(#d)"/>
            <path d="M9.141 9.678a1 1 0 0 1 1.347-.43l.45.235.42.234.732.419.808-.19.283-.064.596-.123a1 1 0 0 1 .495 1.934l-.323.08-.622.133-.459.088-.451.075a8.03 8.03 0 0 1-.139.02l-.247.025a1.224 1.224 0 0 1-.262 0c-.127-.022-.372-.127-.653-.264l-.35-.177-.526-.28-.668-.368a1 1 0 0 1-.43-1.347z" fill="#090909" fill-rule="nonzero" mask="url(#d)" transform="rotate(4 11.999 10.628)"/>
            <path d="M6.488 18.24c.894-2.47 4.203-2.314 7.54-.088a1 1 0 1 1-1.11 1.663c-2.419-1.613-4.258-1.7-4.549-.895-.075.209.08.493.643 1.007l.267.235.974.8.242.208.181.17.164.172c.02.02.039.041.059.064.66.731.916 1.53.495 2.371-.314.63-.689.85-1.569.97l-.354.04-.407.035-.847.065-.144.014c-1.03.109-1.485.327-1.624.745l-.03.107a.872.872 0 0 0-.01.052l-.01.1c-.003.23.118.425.435.58l.147.063.083.03.186.056c.033.009.067.018.103.026l.226.048.255.043.284.038.316.032.348.027.381.02.638.021.47.007h.508l.835-.01.926-.025a1 1 0 1 1 .065 1.999l-.35.01-.675.012-.326.002-.629-.004a31.667 31.667 0 0 1-.302-.006l-.581-.02-.55-.031-.52-.043c-3.61-.344-4.859-1.552-4.12-3.766.439-1.32 1.48-1.868 3.079-2.075l.397-.043 1.104-.086.308-.036-.067-.073-.128-.13-.163-.148-.6-.496-.343-.28-.371-.318c-1.286-1.136-1.738-1.99-1.28-3.26z" fill="#090909" fill-rule="nonzero" mask="url(#d)"/>
        </g>
        <path d="m7.39 14.338-.298.929-.165.517-.041.108c-.024.056-.04.08-.07.097L6.786 16l-.094-.093-.272-.298-.27-.3c-.331-.342-.673-.596-1.092-.771-1.993-.833-3.598.063-4.263 1.977-.584 1.684-.293 3.76.787 4.875.703.727 1.701 1.23 3.409 1.798l.596.192.319.098 1.937.579.694.222.396.137.18.066.33.13.292.128c.093.043.18.086.263.13l.123.066c.642.358 1.163.398 1.36-.219.041-.132.049-.266.034-.433l-.024-.196-.085-.476c-.081-.448-.113-.751-.095-1.049.016-.259.072-.48.174-.671.984-1.838 1.872-6.433.758-7.72-1.435-1.658-4.196-1.749-4.851.165zm4.096.49c.737.851-.085 5.1-.884 6.593a2.593 2.593 0 0 0-.29 1.083c-.02.33.003.643.066 1.039l.076.437-.13-.066a8 8 0 0 0-.47-.213l-.355-.141-.397-.144-.445-.15-.503-.158-1.94-.58-.58-.181-.528-.175c-1.427-.489-2.27-.922-2.807-1.476-.794-.82-1.03-2.5-.56-3.852.488-1.404 1.512-1.976 2.932-1.383.28.117.516.292.76.545l.273.306.249.266.08.081.139.13.052.042c.235.164.497.228.774.15.436-.12.673-.35.846-.794l.22-.674.148-.47.125-.381c.344-1.006 2.022-.988 3.035.042l.114.123z" fill="#FEF7E6" fill-rule="nonzero"/>
    </g>
</svg>
