<svg width="170" height="42" viewBox="0 0 170 42" fill="none" xmlns="http://www.w3.org/2000/svg">
<path fill-rule="evenodd" clip-rule="evenodd" d="M1.95982 19.9403C14.1366 22.6464 26.3183 24 38.5017 24C50.25 24 61.9966 22.7414 73.7389 20.2251L75.0436 19.9403C86.8656 17.3131 98.6828 16 110.498 16C122.314 16 134.131 17.3131 145.953 19.9403C147.302 20.2402 148.64 19.3907 148.94 18.0429C149.24 16.6952 148.389 15.3595 147.04 15.0597C134.863 12.3536 122.682 11 110.498 11C98.75 11 87.0034 12.2586 75.2611 14.7749L73.9564 15.0597C62.1344 17.6869 50.3172 19 38.5017 19C26.6862 19 14.869 17.6869 3.04694 15.0597C1.69765 14.7598 0.360471 15.6093 0.060273 16.9571C-0.239925 18.3048 0.610534 19.6405 1.95982 19.9403Z" fill="url(#paint0_linear)"/>
<path d="M130.038 27.0088L128.337 31.7794L133.158 30.228L141.395 27.5777L148.235 32.9045L152.248 36.0288L152.271 30.9435L152.312 22.2217L159.47 17.314L163.623 14.4668L158.844 12.8795L150.625 10.1493L148.199 1.78139L146.779 -3.11264L143.777 1.00481L138.658 8.02675L130.013 7.76364L124.967 7.61008L127.903 11.7164L132.965 18.7969L130.038 27.0088Z" fill="#A91889" stroke="white" stroke-width="5"/>
<defs>
<linearGradient id="paint0_linear" x1="-31.8932" y1="23.3786" x2="-26.4732" y2="52.7835" gradientUnits="userSpaceOnUse">
<stop stop-color="#150FBA"/>
<stop offset="1" stop-color="#A91889"/>
</linearGradient>
</defs>
</svg>
