<svg xmlns="http://www.w3.org/2000/svg" width="177" height="24" viewBox="0 0 177 24">
    <g fill="none" fill-rule="evenodd">
        <g fill="#160FBB" fill-rule="nonzero">
            <g>
                <g>
                    <path d="M466.166 141.618c18.892 3.592 35.318 5.225 50.7 5.294l1.152.003c11.167-.006 19.95-.676 33.548-2.302l11.705-1.429 2.277-.261 1.035-.111 1.297-.136c2.069-.214 4.001-.391 5.87-.535 17.464-1.347 36.494-.167 57.094 3.56 3.25.588 6.46-1.122 7.168-3.82.708-2.698-1.353-5.362-4.603-5.95-21.76-3.937-42.02-5.193-60.774-3.748-1.668.129-3.374.282-5.164.46l-4.032.424-3.315.39-9.25 1.135-2.066.247c-12.16 1.435-20.19 2.04-30.034 2.074l-.764.002c-14.79.008-30.661-1.528-49.155-5.044-3.242-.617-6.473 1.065-7.215 3.757-.743 2.692 1.283 5.374 4.526 5.99z" transform="translate(-159.000000, -327.000000) translate(-302.265369, 0.000000) translate(0.000000, 200.000000) translate(549.818602, 139.258766) rotate(-5.000000) translate(-549.818602, -139.258766)"/>
                </g>
            </g>
        </g>
    </g>
</svg>
