<svg width="128" height="48" viewBox="0 0 128 48" fill="none" xmlns="http://www.w3.org/2000/svg">
<path fill-rule="evenodd" clip-rule="evenodd" d="M104 2H24C11.8497 2 2 11.8497 2 24C2 36.1503 11.8497 46 24 46H104C116.15 46 126 36.1503 126 24C126 11.8497 116.15 2 104 2ZM24 0C10.7452 0 0 10.7452 0 24C0 37.2548 10.7452 48 24 48H104C117.255 48 128 37.2548 128 24C128 10.7452 117.255 0 104 0H24Z" fill="url(#paint0_angular_1_38)"/>
<defs>
<radialGradient id="paint0_angular_1_38" cx="0" cy="0" r="1" gradientUnits="userSpaceOnUse" gradientTransform="translate(64 24) rotate(167.196) scale(108.293 211.986)">
<stop offset="0.0289134" stop-color="#3120A0"/>
<stop offset="0.0461209" stop-color="#451E8E"/>
<stop offset="0.375" stop-color="#021995"/>
<stop offset="0.557292" stop-color="#3C1E96"/>
<stop offset="0.807292" stop-color="#7B278C"/>
</radialGradient>
</defs>
</svg>
