<svg width="320" height="85" viewBox="0 0 320 85" fill="none" xmlns="http://www.w3.org/2000/svg">
<path d="M0 45C0 22.9086 17.9086 5 40 5H142.614C147.519 5 152.407 4.39836 157.166 3.20855L162.834 1.79145C167.593 0.601641 172.481 0 177.386 0H200H240H280C302.091 0 320 17.9086 320 40V40C320 62.0914 302.091 80 280 80H240H200H177.386C172.481 80 167.593 80.6016 162.834 81.7915L157.166 83.2086C152.407 84.3984 147.519 85 142.614 85H40C17.9086 85 0 67.0914 0 45V45Z" fill="#081A95"/>
<path d="M320 45C320 22.9086 302.091 5 280 5H177.386C172.481 5 167.593 4.39836 162.834 3.20855L157.166 1.79145C152.407 0.601641 147.519 0 142.614 0H120H80H40C17.9086 0 0 17.9086 0 40V40C0 62.0914 17.9086 80 40 80H80H120H142.614C147.519 80 152.407 80.6016 157.166 81.7915L162.834 83.2086C167.593 84.3984 172.481 85 177.386 85H280C302.091 85 320 67.0914 320 45V45Z" fill="url(#paint0_angular_7_75)"/>
<defs>
<radialGradient id="paint0_angular_7_75" cx="0" cy="0" r="1" gradientUnits="userSpaceOnUse" gradientTransform="translate(160 44.9999) rotate(8.61564) scale(267.013 358.231)">
<stop offset="0.0289134" stop-color="#3120A0"/>
<stop offset="0.0461209" stop-color="#451E8E"/>
<stop offset="0.375" stop-color="#021995"/>
<stop offset="0.557292" stop-color="#3C1E96"/>
<stop offset="0.807292" stop-color="#7B278C"/>
</radialGradient>
</defs>
</svg>
