<svg width="53" height="80" viewBox="0 0 53 80" fill="none" xmlns="http://www.w3.org/2000/svg">
<g filter="url(#filter0_ii_552_198)">
<path fill-rule="evenodd" clip-rule="evenodd" d="M1.74203 6.53061L3.37468 17.9592C3.37468 17.9592 0.109375 27.7551 0.109375 35.9184C0.109375 44.0816 8.27264 47.3469 8.27264 47.3469C8.27264 47.3469 9.90529 50.6122 13.1706 50.6122C16.4359 50.6122 18.0686 50.6122 18.0686 50.6122C18.0686 50.6122 19.7012 52.2449 22.9665 52.2449C26.2318 52.2449 27.8645 50.6122 27.8645 50.6122C27.8645 50.6122 27.8645 68.5714 27.8645 73.4694C27.8645 78.3673 30.4806 80 32.7624 80C34.7129 80 37.6604 78.6662 37.6604 73.4694C37.6604 68.5714 37.6604 44.0816 37.6604 44.0816C37.6604 44.0816 40.9257 53.8776 47.4563 53.8776C53.9869 53.8776 53.9869 48.9796 50.7216 47.3469C47.4563 45.7143 45.8237 29.3878 42.5584 24.4898C39.293 19.5918 31.1298 16.3265 31.1298 16.3265L34.3951 6.53061C34.3951 6.53061 27.8645 0 18.0686 0C8.27264 0 1.74203 6.53061 1.74203 6.53061Z" fill="#A91889"/>
</g>
<mask id="mask0_552_198" style="mask-type:alpha" maskUnits="userSpaceOnUse" x="0" y="0" width="53" height="80">
<path fill-rule="evenodd" clip-rule="evenodd" d="M1.74203 6.53061L3.37468 17.9592C3.37468 17.9592 0.109375 27.7551 0.109375 35.9184C0.109375 44.0816 8.27264 47.3469 8.27264 47.3469C8.27264 47.3469 9.90529 50.6122 13.1706 50.6122C16.4359 50.6122 18.0686 50.6122 18.0686 50.6122C18.0686 50.6122 19.7012 52.2449 22.9665 52.2449C26.2318 52.2449 27.8645 50.6122 27.8645 50.6122C27.8645 50.6122 27.8645 68.5714 27.8645 73.4694C27.8645 78.3673 30.4806 80 32.7624 80C34.7129 80 37.6604 78.6662 37.6604 73.4694C37.6604 68.5714 37.6604 44.0816 37.6604 44.0816C37.6604 44.0816 40.9257 53.8776 47.4563 53.8776C53.9869 53.8776 53.9869 48.9796 50.7216 47.3469C47.4563 45.7143 45.8237 29.3878 42.5584 24.4898C39.293 19.5918 31.1298 16.3265 31.1298 16.3265L34.3951 6.53061C34.3951 6.53061 27.8645 0 18.0686 0C8.27264 0 1.74203 6.53061 1.74203 6.53061Z" fill="white"/>
</mask>
<g mask="url(#mask0_552_198)">
<g filter="url(#filter1_f_552_198)">
<ellipse cx="44.1905" cy="13.0612" rx="29.3878" ry="22.8571" fill="#160FBB"/>
</g>
</g>
<defs>
<filter id="filter0_ii_552_198" x="-1.89062" y="-2" width="55.7578" height="83" filterUnits="userSpaceOnUse" color-interpolation-filters="sRGB">
<feFlood flood-opacity="0" result="BackgroundImageFix"/>
<feBlend mode="normal" in="SourceGraphic" in2="BackgroundImageFix" result="shape"/>
<feColorMatrix in="SourceAlpha" type="matrix" values="0 0 0 0 0 0 0 0 0 0 0 0 0 0 0 0 0 0 127 0" result="hardAlpha"/>
<feOffset dx="1" dy="1"/>
<feGaussianBlur stdDeviation="2.5"/>
<feComposite in2="hardAlpha" operator="arithmetic" k2="-1" k3="1"/>
<feColorMatrix type="matrix" values="0 0 0 0 0.880594 0 0 0 0 0.200557 0 0 0 0 0.79496 0 0 0 1 0"/>
<feBlend mode="normal" in2="shape" result="effect1_innerShadow_552_198"/>
<feColorMatrix in="SourceAlpha" type="matrix" values="0 0 0 0 0 0 0 0 0 0 0 0 0 0 0 0 0 0 127 0" result="hardAlpha"/>
<feOffset dx="-2" dy="-2"/>
<feGaussianBlur stdDeviation="1"/>
<feComposite in2="hardAlpha" operator="arithmetic" k2="-1" k3="1"/>
<feColorMatrix type="matrix" values="0 0 0 0 0.0506014 0 0 0 0 0.0274733 0 0 0 0 0.595762 0 0 0 0.5 0"/>
<feBlend mode="normal" in2="effect1_innerShadow_552_198" result="effect2_innerShadow_552_198"/>
</filter>
<filter id="filter1_f_552_198" x="1.21133" y="-23.3873" width="85.9582" height="72.8967" filterUnits="userSpaceOnUse" color-interpolation-filters="sRGB">
<feFlood flood-opacity="0" result="BackgroundImageFix"/>
<feBlend mode="normal" in="SourceGraphic" in2="BackgroundImageFix" result="shape"/>
<feGaussianBlur stdDeviation="6.7957" result="effect1_foregroundBlur_552_198"/>
</filter>
</defs>
</svg>
