<svg width="308" height="47" viewBox="0 0 308 47" fill="none" xmlns="http://www.w3.org/2000/svg">
<path id="line" d="M9.3131 41.5323C42.7461 46.1718 71.5432 47.0906 98.2426 44.9009L100.241 44.7309C119.614 43.023 134.731 40.2907 158.025 34.8293L178.07 30.0652L181.974 29.1734C182.555 29.0445 183.131 28.9185 183.748 28.7846L185.974 28.3051C189.525 27.5424 192.845 26.8787 196.059 26.2942C226.113 20.8294 259.344 20.4068 295.767 25.0696C301.513 25.8052 306.767 21.7433 307.503 15.9971C308.238 10.2509 304.176 4.99641 298.43 4.2608C259.959 -0.664283 224.58 -0.214319 192.306 5.65401C189.436 6.17591 186.502 6.75367 183.429 7.39888L176.512 8.89737L170.833 10.2164L154.992 13.9914L151.453 14.821C130.618 19.6656 116.798 22.1474 99.7242 23.7141L98.3989 23.8333C72.74 26.0954 44.925 25.2946 12.1964 20.7528C6.45847 19.9565 1.16151 23.9627 0.365311 29.7008C-0.430892 35.4389 3.57517 40.736 9.3131 41.5323Z" fill="#160FBB"/>
</svg>
