<svg width="240" height="140" viewBox="0 0 240 140" fill="none" xmlns="http://www.w3.org/2000/svg">
<rect opacity="0.01" width="240" height="140" fill="#141417"/>
<path fill-rule="evenodd" clip-rule="evenodd" d="M114.469 75.4688V52H117.656V75.2812C117.656 79.1472 120.79 82.2812 124.656 82.2812H125.094V85.4688H124.469C118.946 85.4688 114.469 80.9916 114.469 75.4688ZM64 72.625V85.4688H67.1875V72.8125C67.1875 68.9465 70.3215 65.8125 74.1875 65.8125H74.625V62.625H74C68.4772 62.625 64 67.1022 64 72.625ZM131.469 52V75.4688C131.469 80.9916 135.946 85.4688 141.469 85.4688H142.094V82.2812H141.656C137.79 82.2812 134.656 79.1472 134.656 75.2812V52H131.469ZM91 63.1562C85.4772 63.1562 81 67.6334 81 73.1562V76C81 81.5228 85.4772 86 91 86H97.5625C103.085 86 107.562 81.5228 107.562 76V73.1562C107.562 67.6334 103.085 63.1562 97.5625 63.1562H91ZM91.1875 66.3438C87.3215 66.3438 84.1875 69.4778 84.1875 73.3438V75.8125C84.1875 79.6785 87.3215 82.8125 91.1875 82.8125H97.375C101.241 82.8125 104.375 79.6785 104.375 75.8125V73.3438C104.375 69.4778 101.241 66.3438 97.375 66.3438H91.1875ZM148.15 73.1562C148.15 67.6334 152.627 63.1562 158.15 63.1562H164.712C170.235 63.1562 174.712 67.6334 174.712 73.1562V76C174.712 81.5228 170.235 86 164.712 86H158.15C152.627 86 148.15 81.5228 148.15 76V73.1562ZM151.337 73.3438C151.337 69.4778 154.471 66.3438 158.337 66.3438H164.525C168.391 66.3438 171.525 69.4778 171.525 73.3438V75.8125C171.525 79.6785 168.391 82.8125 164.525 82.8125H158.337C154.471 82.8125 151.337 79.6785 151.337 75.8125V73.3438Z" fill="#FFF7E7"/>
</svg>
