<?xml version="1.0" encoding="UTF-8"?>
<svg width="247px" height="66px" viewBox="0 0 247 66" version="1.1" xmlns="http://www.w3.org/2000/svg" xmlns:xlink="http://www.w3.org/1999/xlink">
    <title>Energy Ogre with slogan white circle</title>
    <g id="Page-1" stroke="none" stroke-width="1" fill="none" fill-rule="evenodd">
        <g id="Group-2" fill="#FFF7E7" transform="translate(0.323808, 0.356818)">
            <path d="M33.6650607,38.320984 C38.69077,38.320984 42.7705974,39.6488339 44.5043866,40.3180639 L44.5043866,40.3180639 L44.5043866,57.3207508 C44.5043866,60.202016 42.1929297,62.2623642 39.6358658,63.658984 C38.8184856,63.9977252 37.979885,64.2897029 37.1098466,64.4952268 C37.077623,63.8731534 36.9172907,63.3945144 36.9172907,63.3945144 L36.9172907,63.3945144 L29.7809329,63.3945144 C29.7809329,63.3945144 29.7768869,63.4064012 29.769944,63.4288712 L29.7415735,63.5267273 C29.6894287,63.7172252 29.6018892,64.0956355 29.5836613,64.5431693 C29.2040511,64.4594665 28.8334792,64.3455048 28.4636933,64.2370447 C25.2295399,62.6922748 21.9808466,60.3411278 21.9808466,57.3207508 L21.9808466,57.3207508 L21.9808466,40.3663994 C23.9276262,39.6975623 28.5415016,38.320984 33.6650607,38.320984 Z M32.9797188,-4.40536496e-13 C33.09267,0.00387357371 33.2038167,0.00704140314 33.3140033,0.00987125439 L33.970357,0.0257367524 C34.409252,0.0375327639 34.8598056,0.0556896394 35.3760575,0.103744409 C36.2567061,0.15758147 37.0846965,0.272329073 37.911508,0.384325879 C39.565131,0.650367412 41.2081438,0.997361022 42.7981054,1.51058147 C44.3884601,2.02498083 45.9461981,2.62072524 47.4351661,3.35322364 C48.9221693,4.09358147 50.3521917,4.92117891 51.701655,5.85880831 C54.4080479,7.72345687 56.7812013,9.9889361 58.767278,12.4878403 C60.7380288,15.0067859 62.3220958,17.752476 63.4746805,20.6081981 C63.7772684,21.3131885 64.0095144,22.0464728 64.2653387,22.7605016 C64.4759712,23.4941789 64.7105751,24.2121374 64.8720863,24.9469936 C65.2454089,26.404524 65.4678307,27.8777732 65.6368083,29.3321597 C65.6977188,30.0615144 65.7751342,30.7861534 65.7884952,31.5080415 C65.7983195,31.8695751 65.8195399,32.2283578 65.8177027,32.5879265 C65.8124665,32.9455304 65.8069649,33.3027412 65.7994984,33.6572013 L65.7994984,33.6572013 L65.7884952,34.221508 L65.7539137,34.7296198 C65.7326933,35.0699329 65.7110799,35.4067093 65.6859297,35.7430927 C65.6045847,36.4441534 65.5424952,37.1656486 65.4238179,37.843524 C64.5765719,43.309361 62.388115,48.1421214 59.6298498,51.9767348 C56.8432907,55.8117412 53.5266134,58.6717859 50.3113227,60.6857636 C48.7021054,61.6976645 47.1074281,62.4997188 45.5960607,63.1276869 C44.3369808,63.6495527 43.1439201,64.0743546 42.0192364,64.3922684 C42.0817188,64.3325367 42.1532396,64.2728051 42.2192588,64.2126805 C44.6132396,63.4432428 47.354607,62.2529329 50.0924377,60.3552748 C53.1843355,58.2395176 56.2903802,55.2435048 58.6906486,51.3475879 C59.8864601,49.404738 60.912508,47.2532204 61.6953067,44.9405847 C62.4659233,42.6279489 62.9374888,40.1412268 63.1213994,37.5841629 C63.1752364,36.9447987 63.1716997,36.3227252 63.1996006,35.6802173 C63.1933131,35.342655 63.1838818,35.0054856 63.180345,34.6647796 L63.180345,34.6647796 L63.1697348,34.1543099 L63.1382971,33.6964984 C63.1143259,33.3691534 63.0903546,33.0422013 63.0687412,32.7152492 C63.0412332,32.3859393 62.9948626,32.0605591 62.9539936,31.7308562 C62.8930831,31.0753802 62.7614377,30.4230479 62.6498339,29.7675719 C62.141722,27.1527412 61.2791502,24.5673834 60.0703706,22.1152428 C57.6689233,17.2042812 53.792262,12.887099 49.0270927,9.87340256 C46.6405783,8.37461022 44.0414665,7.19333866 41.3197476,6.40189457 C39.9541725,6.00813738 38.5610895,5.72205431 37.1577891,5.50552716 C36.449262,5.41828754 35.7399489,5.32436741 35.0758275,5.29253674 C34.4415719,5.2233738 33.5896102,5.2371278 32.8347125,5.20804792 L32.8347125,5.20804792 L31.8357796,5.23280511 C31.4766038,5.23084026 31.1221438,5.2603131 30.7668978,5.28703514 C30.0564058,5.32279553 29.3525942,5.41789457 28.6468179,5.50316933 C27.2466613,5.72480511 25.8480767,5.99909904 24.4852524,6.39403514 C21.7631406,7.18940895 19.1581342,8.364 16.768476,9.8659361 C12.0025208,12.8753099 8.1235016,17.192885 5.71969649,22.1101342 C4.51013099,24.5614888 3.64755911,27.1495974 3.13748243,29.7644281 C3.02980831,30.4202971 2.89934185,31.0800958 2.8345016,31.7147444 C2.79992013,32.0397316 2.75197764,32.3478211 2.72093291,32.6861693 C2.70089137,33.0276613 2.67574121,33.3691534 2.65294888,33.7106454 C2.59675399,34.3362556 2.61600958,35.0090224 2.59203834,35.6515304 C2.61600958,36.298754 2.61600958,36.9471565 2.6718115,37.5841629 C2.85847284,40.1447636 3.32885942,42.6295208 4.10301278,44.9449073 C4.88463259,47.2567572 5.91461022,49.4059169 7.11002875,51.3526965 C9.51029712,55.2470415 12.6202716,58.2422684 15.7074537,60.3568466 C18.6016869,62.3578562 21.4864888,63.5693866 23.9692812,64.3325367 C24.0411949,64.3875527 24.1068211,64.4437476 24.1728403,64.4979776 C22.9357668,64.1722045 21.6169553,63.7081054 20.2112971,63.1276869 C18.6987508,62.497361 17.1048594,61.6976645 15.4968211,60.6845847 C12.2827093,58.6682492 8.96721086,55.8074185 6.18261661,51.9724121 C3.42592332,48.1385847 1.24100319,43.3070032 0.391399361,37.8419521 C0.276651757,37.1617188 0.219277955,36.4689105 0.13557508,35.7713866 C0.095884984,35.0679681 0.0157188498,34.3822332 0.0192555911,33.6446262 C0.0121821086,33.3027412 0.00746645368,32.9604633 9.37916411e-13,32.6158275 L9.37916411e-13,32.6158275 L9.37916411e-13,32.5993227 C0.000785942493,32.2566518 0.0220063898,31.8833291 0.0302587859,31.5257252 C0.0420479233,30.7806518 0.121035144,30.0650511 0.184303514,29.3345176 C0.352102236,27.8817029 0.575702875,26.4088466 0.949025559,24.9521022 C1.10935783,24.217246 1.34631949,23.4992875 1.55695208,22.7667891 C1.67052077,22.4060415 1.80452396,22.0492236 1.93263259,21.6872971 C2.05838339,21.3253706 2.19592332,20.9677668 2.35036102,20.6125208 C3.49272843,17.7599425 5.08190415,15.0154313 7.0479393,12.4992364 C9.02812141,9.99561661 11.4107061,7.73799681 14.1088466,5.86784665 C15.4559521,4.92903834 16.891869,4.10694249 18.3741565,3.35951118 C19.8591949,2.62544089 21.4196837,2.03008946 23.0084665,1.5156901 C24.5988211,1.00364856 26.240262,0.648795527 27.893885,0.386290735 C28.7222684,0.276258786 29.5549744,0.159546326 30.3912173,0.109246006 C30.8089457,0.075057508 31.227853,0.0392971246 31.6463674,0.0361533546 L31.6463674,0.0361533546 L32.9522109,-4.40536496e-13 Z M37.145607,60.6712236 L29.5502588,60.6712236 C29.2260575,60.6712236 28.9698403,60.9321565 28.9698403,61.2524281 L28.9698403,61.2524281 L28.9698403,62.4081565 C28.9698403,62.7292141 29.2260575,62.9877891 29.5502588,62.9877891 L29.5502588,62.9877891 L37.145607,62.9877891 C37.4674505,62.9877891 37.7295623,62.7292141 37.7295623,62.4081565 L37.7295623,62.4081565 L37.7295623,61.2524281 C37.7295623,60.9321565 37.4674505,60.6712236 37.145607,60.6712236 L37.145607,60.6712236 Z M38.1280351,55.5716358 C38.1280351,55.5716358 35.2495208,56.0023323 34.4093482,57.2944217 L34.4093482,57.2944217 L34.4093482,59.7583514 C34.4093482,59.7583514 34.4643642,60.0959137 35.3595527,60.0959137 C36.2508115,60.0959137 36.3702748,59.5115655 36.3702748,59.5115655 C36.3702748,59.5115655 36.2783195,58.2493419 38.4369105,57.5734313 C38.4369105,57.5734313 39.8559297,56.4955112 38.1280351,55.5716358 Z M38.0062141,52.5858403 C36.0676869,52.2761789 29.0166038,55.0234409 28.3909936,55.3574665 C28.0365335,55.5453067 27.8891693,55.937885 27.8762013,56.3446102 C27.7421981,56.7085016 27.9021374,57.0417412 28.0770096,57.2704505 C28.1917572,57.5003387 28.3571981,57.6488818 28.5257827,57.6256965 C30.3109834,58.2426071 30.432169,59.2692041 30.4381374,59.4750016 L30.4381745,59.5073628 L30.4381745,59.5073628 C30.4379808,59.5115655 30.5613738,60.0959137 31.4502748,60.0959137 C32.349,60.0959137 32.3993003,59.7583514 32.3993003,59.7583514 L32.3993003,59.7583514 L32.3993003,57.2944217 C32.2723706,57.1010799 32.0974984,56.9285655 31.8955112,56.77177 C34.7873866,55.9186294 38.1594728,54.7711534 38.1594728,54.7711534 C39.9970064,53.5038211 38.0062141,52.5858403 38.0062141,52.5858403 Z M243.614665,55.719393 C244.179364,55.7948435 244.756246,55.8451438 245.378319,56.1127572 C242.329649,55.9272748 239.36861,55.9543898 236.409537,56.0113706 C229.279073,56.1493035 222.174546,56.6640958 215.097527,57.5577125 C214.939291,57.577623 214.779133,57.5844345 214.618452,57.5909549 L214.377211,57.6021182 L214.377211,57.6021182 L214.179189,57.6476581 C214.152188,57.6548993 214.125341,57.661502 214.098953,57.6661536 L214.377211,57.6021182 C213.656764,57.7907444 212.917214,57.8502905 212.181302,57.9331237 L211.740374,57.9868371 L211.740374,57.9868371 L210.949372,58.0852764 L210.949372,58.0852764 L210.158665,58.1837157 L210.158665,58.1837157 C209.592393,58.3723419 207.949773,58.5880831 207.371319,58.5094888 C208.398153,58.3322588 209.281946,58.1805719 210.165738,58.028099 C210.631409,57.9675815 211.09708,57.9070639 211.562358,57.8465463 C212.288569,57.6272684 213.040716,57.5600703 213.78854,57.4641853 C218.924674,56.6534856 224.079278,55.9940799 229.264141,55.6144696 C234.046994,55.2651182 238.836134,55.0812077 243.614665,55.719393 Z M31.939524,8.76954633 C31.9576006,9.02104792 32.0306933,9.27451438 32.1694121,9.50676038 C32.3705643,9.85817492 32.6830378,10.1087985 33.0378586,10.2420457 L33.1923163,10.2919169 L33.2426166,10.2895591 C33.4905815,10.2895591 33.7369744,10.2966326 33.9810096,10.3111725 C34.1558818,10.2734473 34.330361,10.2168594 34.4954089,10.1213674 C34.7728466,9.96221406 34.9834792,9.73429073 35.1284856,9.4737508 C35.1485272,9.79441534 35.0805431,10.1142939 34.9261054,10.3984121 C38.9803136,10.894138 42.4935319,13.1596273 44.7006578,16.4127241 C45.0699859,16.0813686 45.3932406,15.6937484 45.6998051,15.2971917 C46.0133962,14.8924313 46.4464505,13.9390831 46.9702812,13.8341597 C47.5471629,13.7221629 48.5908946,15.2626102 48.8777636,15.6764089 C49.4008083,16.4395591 49.8409361,17.4003738 49.5395272,18.3474345 C49.2532546,19.2541969 47.6851692,19.3389947 46.2242913,19.2402512 C46.833811,20.9902698 47.2483873,23.3440262 47.0091853,26.3998083 C46.8857923,27.2714185 46.6967732,28.1202364 46.4264089,28.932901 C46.4609904,28.9501917 46.4908562,28.9674824 46.5242588,28.9859521 C48.1299393,29.8854633 49.8880927,31.1610479 51.5161725,32.8606486 C52.3249073,33.7106454 53.1077061,34.658885 53.8075879,35.711262 C54.5066837,36.7581374 55.1334728,37.8985399 55.6407987,39.1073195 C55.8930863,39.7113163 56.114722,40.3329968 56.3049201,40.9633227 C56.4951182,41.5952204 56.6507348,42.2330128 56.7694121,42.8790575 C57.0095176,44.1672173 57.0983291,45.468345 57.0393834,46.7148498 C56.9772939,47.9629265 56.771377,49.1520575 56.4699681,50.2335144 C56.1638435,51.318901 55.7555463,52.2966134 55.309524,53.1450383 C55.1959553,53.3576358 55.0894601,53.5604089 54.9648882,53.7553227 C54.8462109,53.9514153 54.7385367,54.1451502 54.6178946,54.324738 C53.4330863,56.0514537 51.8403738,55.5897125 51.3633067,53.6185687 C51.0493227,52.3264792 51.3680224,50.9298594 51.236377,49.6487732 C51.1475655,48.7991693 51.018278,47.9322748 50.8390831,47.0618435 C50.6630319,46.1918051 50.4288211,45.3158722 50.1592428,44.4375815 C50.0963674,44.2206613 50.0228818,44.0057061 49.9548978,43.7887859 C49.9607923,44.0595431 49.9666869,44.3310863 49.9666869,44.6038083 C49.9666869,49.0240573 48.6247943,53.09189 46.377127,56.3135347 L46.1328594,56.6554505 L46.1328594,39.6728051 L45.3311981,39.2869073 C45.1252812,39.1914153 40.261869,36.8952843 33.6210479,36.8952843 C27.6272944,36.8952843 22.4938507,38.7616095 21.4219864,39.1783652 L21.2715218,39.2378504 C21.2600416,39.2424795 21.2503347,39.2464203 21.2424282,39.2496447 L21.224377,39.2570415 L20.3559105,39.6170032 L20.3559105,56.6220479 C18.2511565,53.7407827 16.8773291,50.156099 16.5841725,46.2173482 C16.5150096,46.4995016 16.4419169,46.7820479 16.385722,47.0618435 C16.208885,47.9322748 16.0792045,48.7999553 15.9907859,49.6487732 C15.9308021,50.210552 15.8515155,51.280264 15.6846323,52.3587135 L15.6345088,52.6666485 L15.6103598,52.8043727 L15.5588365,53.0776072 C15.1468492,55.1574995 14.3368988,56.839505 12.6092684,54.324738 C12.4874473,54.1451502 12.3774153,53.9514153 12.258738,53.7553227 C12.1392748,53.5604089 12.0288498,53.3576358 11.917639,53.1450383 C11.466901,52.2966134 11.0609617,51.318901 10.7583738,50.2335144 C10.4557859,49.1520575 10.2475112,47.9629265 10.1901374,46.7148498 C10.1288339,45.468345 10.2164665,44.1672173 10.4577508,42.8790575 C10.5740703,42.2330128 10.7308658,41.5952204 10.9210639,40.9633227 C11.111262,40.3329968 11.3336837,39.7113163 11.5875431,39.1073195 C12.0913323,37.8985399 12.7169425,36.7581374 13.4183962,35.711262 C14.1159201,34.658885 14.9006837,33.7106454 15.7074537,32.8606486 C17.1622332,31.3449585 18.7215431,30.1660447 20.1775016,29.2897188 C19.6281278,27.7732428 19.3302556,26.1333738 19.3302556,24.4235559 C19.3302556,23.834492 19.3711246,23.2560383 19.4406805,22.686623 C19.4273195,22.6803355 19.4151374,22.673655 19.4057061,22.6685463 C19.5900096,20.9988115 20.0603962,19.583722 20.5712588,18.4782939 C20.5857987,18.4853674 20.5987668,18.4940128 20.6129137,18.5003003 C22.6437891,14.0436134 26.8866997,10.8405048 31.912016,10.3555783 C31.651476,9.84 31.6774121,9.24857827 31.939524,8.76954633 Z M168.35399,47.0657732 C169.33799,47.0657732 170.272083,47.4591374 170.272083,47.4591374 L170.272083,52.0824441 C170.272083,53.2629297 169.288869,54.2465367 167.862383,54.2465367 C166.780141,54.2465367 166.042534,53.6067796 166.042534,53.6067796 L166.190291,53.3611725 C166.190291,53.3611725 166.878776,53.9514153 167.862383,53.9514153 C169.09199,53.9514153 169.92784,53.1151725 169.92784,52.0824441 L169.92784,51.8364441 C169.92784,51.8364441 169.239355,52.1806869 168.35399,52.1806869 C166.780141,52.1806869 165.649169,51.0493227 165.649169,49.62323 C165.649169,48.1971374 166.780141,47.0657732 168.35399,47.0657732 Z M236.903109,47.0657732 C237.935837,47.0657732 238.919444,47.4591374 238.919444,47.4591374 L238.919444,51.9838083 C238.919444,53.2629297 237.935837,54.2465367 236.165895,54.2465367 C235.083652,54.2465367 234.395559,53.6562939 234.395559,53.6562939 L234.739409,53.0660511 C234.739409,53.0660511 235.28053,53.5085367 236.165895,53.5085367 C237.395109,53.5085367 238.083594,52.8200511 238.083594,51.9838083 L238.083594,51.9346869 C238.083594,51.9346869 237.542473,52.1806869 236.903109,52.1806869 C235.182288,52.1806869 234.001802,51.0002013 234.001802,49.62323 C234.001802,48.2462588 235.182288,47.0657732 236.903109,47.0657732 Z M172.484511,47.2626518 L172.484511,50.0165942 C172.484511,51.0493227 173.320754,51.8855655 174.599089,51.8855655 C175.484454,51.8855655 176.320696,51.5904441 176.320696,51.5904441 L176.320696,47.2626518 L176.664939,47.2626518 L176.664939,52.0824441 C176.664939,53.2629297 175.681332,54.2465367 174.254847,54.2465367 C173.172604,54.2465367 172.434997,53.6067796 172.434997,53.6067796 L172.582754,53.3611725 C172.582754,53.3611725 173.27124,53.9514153 174.254847,53.9514153 C175.484454,53.9514153 176.320696,53.1151725 176.320696,52.0824441 L176.320696,51.8855655 C176.320696,51.8855655 175.484454,52.1806869 174.599089,52.1806869 C173.074754,52.1806869 172.139875,51.2462013 172.139875,50.0165942 L172.139875,47.2626518 L172.484511,47.2626518 Z M183.647645,47.2626518 L183.647645,49.9183514 C183.647645,50.7542013 184.286617,51.3939585 185.368859,51.3939585 C186.106073,51.3939585 186.745438,51.1970799 186.745438,51.1970799 L186.745438,47.2626518 L187.581681,47.2626518 L187.581681,51.9838083 C187.581681,53.2629297 186.598073,54.2465367 184.827738,54.2465367 C183.745888,54.2465367 183.05701,53.6562939 183.05701,53.6562939 L183.401252,53.0660511 C183.401252,53.0660511 183.942767,53.5085367 184.827738,53.5085367 C186.056559,53.5085367 186.745438,52.8200511 186.745438,51.9838083 L186.745438,51.9346869 C186.745438,51.9346869 186.155195,52.1315655 185.368859,52.1315655 C183.745888,52.1315655 182.811403,51.1970799 182.811403,49.9183514 L182.811403,47.2626518 L183.647645,47.2626518 Z M178.385367,51.5904441 C178.582246,51.5904441 178.730003,51.7382013 178.730003,52.0329297 C178.730003,52.7709297 178.13976,53.2629297 178.13976,53.2629297 L177.992396,53.1151725 C177.992396,53.1151725 178.385367,52.7709297 178.385367,52.3284441 L178.385367,52.2789297 C178.188882,52.2789297 178.041125,52.1315655 178.041125,51.9346869 C178.041125,51.7382013 178.188882,51.5904441 178.385367,51.5904441 Z M34.302853,39.7549361 L30.6281789,47.2913387 L34.3936294,48.4282045 L31.7732971,53.1006326 L37.1027732,47.5577732 L33.5467764,46.4849617 L38.7002013,41.0863227 L34.302853,39.7549361 Z M196.285208,47.2626518 L196.285208,50.1643514 C196.285208,51.0002013 196.924572,51.6399585 198.006815,51.6399585 C198.744029,51.6399585 199.383393,51.4430799 199.383393,51.4430799 L199.383393,47.2626518 L200.219636,47.2626518 L200.219636,51.9838083 C200.219636,51.9838083 199.236029,52.3771725 198.006815,52.3771725 C196.38345,52.3771725 195.448965,51.4430799 195.448965,50.1643514 L195.448965,47.2626518 L196.285208,47.2626518 Z M161.912406,47.0657732 C163.338498,47.0657732 164.46947,48.1971374 164.46947,49.7214728 C164.46947,51.2462013 163.338498,52.3771725 161.912406,52.3771725 C160.48592,52.3771725 159.354949,51.2462013 159.354949,49.7214728 C159.354949,48.1971374 160.48592,47.0657732 161.912406,47.0657732 Z M216.151476,47.0657732 C217.62669,47.0657732 218.46254,47.902016 218.46254,49.0825016 L218.46254,51.9838083 C218.46254,51.9838083 217.479326,52.3771725 216.249719,52.3771725 C214.578019,52.3771725 213.791291,51.5904441 213.791291,50.6559585 C213.791291,49.7214728 214.578019,48.9347444 216.249719,48.9347444 C216.966162,48.9347444 217.466069,49.0433007 217.594279,49.0743168 L217.62669,49.0825016 L217.62669,49.0825016 C217.62669,48.2953802 217.135083,47.8033802 216.151476,47.8033802 C215.315626,47.8033802 214.774898,48.1971374 214.774898,48.1971374 L214.430655,47.6068946 C214.430655,47.6068946 215.119141,47.0657732 216.151476,47.0657732 Z M191.515323,47.0657732 C192.99093,47.0657732 194.171022,48.2462588 194.171022,49.7214728 C194.171022,51.1970799 192.99093,52.3771725 191.515323,52.3771725 C190.039716,52.3771725 188.859623,51.1970799 188.859623,49.7214728 C188.859623,48.2462588 190.039716,47.0657732 191.515323,47.0657732 Z M129.014425,47.0657732 C130.391789,47.0657732 131.424518,48.0988946 131.424518,49.7214728 L131.227639,49.9183514 L126.948968,49.9183514 C126.948968,51.0988371 127.932575,52.0824441 129.211304,52.0824441 C130.194911,52.0824441 130.883789,51.4922013 130.883789,51.4922013 L131.031153,51.7382013 C131.031153,51.7382013 130.293546,52.3771725 129.211304,52.3771725 C127.735696,52.3771725 126.604725,51.2462013 126.604725,49.7214728 C126.604725,48.0988946 127.637454,47.0657732 129.014425,47.0657732 Z M109.688885,47.2626518 L109.688885,50.2134728 C109.688885,51.2462013 110.525128,52.0824441 111.803463,52.0824441 C112.688827,52.0824441 113.52507,51.7873227 113.52507,51.7873227 L113.52507,47.2626518 L113.869313,47.2626518 L113.869313,51.9838083 C113.869313,51.9838083 112.885706,52.3771725 111.803463,52.3771725 C110.279128,52.3771725 109.344642,51.4430799 109.344642,50.2134728 L109.344642,47.2626518 L109.688885,47.2626518 Z M105.263636,47.0657732 C106.689728,47.0657732 107.8207,48.1971374 107.8207,49.7214728 C107.8207,51.2462013 106.689728,52.3771725 105.263636,52.3771725 C103.83715,52.3771725 102.705786,51.2462013 102.705786,49.7214728 C102.705786,48.1971374 103.83715,47.0657732 105.263636,47.0657732 Z M210.939498,47.0657732 C212.021348,47.0657732 212.758955,47.7051374 212.758955,47.7051374 L212.414712,48.2953802 C212.414712,48.2953802 211.824863,47.8033802 210.939498,47.8033802 C210.103256,47.8033802 209.759013,48.147623 209.759013,48.5413802 C209.759013,49.5245942 212.906712,48.9838658 212.906712,50.7542013 C212.906712,51.5904441 212.119591,52.3771725 210.594863,52.3771725 C209.463891,52.3771725 208.627649,51.6890799 208.627649,51.6890799 L208.972284,51.0988371 C208.972284,51.0988371 209.66077,51.6399585 210.594863,51.6399585 C211.57847,51.6399585 212.021348,51.1970799 212.021348,50.7542013 C212.021348,49.7214728 208.873649,50.2625942 208.873649,48.5413802 C208.873649,47.8033802 209.611256,47.0657732 210.939498,47.0657732 Z M123.457812,45.8856805 L123.457812,47.2626518 L125.375511,47.2626518 L125.375511,47.5577732 L123.457812,47.5577732 L123.457812,50.7054728 C123.457812,51.5413227 123.99854,52.0824441 124.785661,52.0824441 C125.277268,52.0824441 125.719754,51.7873227 125.719754,51.7873227 L125.867511,52.0329297 L125.834012,52.054866 C125.713811,52.1307028 125.284765,52.3771725 124.785661,52.3771725 C123.802054,52.3771725 123.113569,51.6890799 123.113569,50.7054728 L123.113569,47.5577732 L122.129569,47.5577732 L122.129569,47.2626518 L123.113569,47.2626518 L123.211812,45.8856805 L123.457812,45.8856805 Z M135.161281,47.0657732 C136.243524,47.0657732 136.882888,47.6068946 136.882888,47.6068946 L136.735524,47.8528946 C136.735524,47.8528946 136.145281,47.3608946 135.161281,47.3608946 C133.833431,47.3608946 132.849824,48.3445016 132.849824,49.7214728 C132.849824,51.0988371 133.833431,52.0824441 135.161281,52.0824441 C136.145281,52.0824441 136.833767,51.4922013 136.833767,51.4922013 L136.981131,51.7382013 C136.971307,51.7382013 136.243524,52.3771725 135.161281,52.3771725 C133.636946,52.3771725 132.505581,51.2462013 132.505581,49.7214728 C132.505581,48.1971374 133.636946,47.0657732 135.161281,47.0657732 Z M242.460115,47.0657732 C243.542358,47.0657732 244.279572,47.7051374 244.279572,47.7051374 L243.935329,48.2953802 C243.935329,48.2953802 243.345479,47.8033802 242.460115,47.8033802 C241.624265,47.8033802 241.280022,48.147623 241.280022,48.5413802 C241.280022,48.9143235 241.732845,49.0680075 242.29497,49.211723 L242.610359,49.2903826 C243.46929,49.5042144 244.427329,49.7774645 244.427329,50.7542013 C244.427329,51.5904441 243.640601,52.3771725 242.115872,52.3771725 C241.251012,52.3771725 240.558731,51.9747931 240.280834,51.7854381 L240.182877,51.7154103 C240.16062,51.6986036 240.149051,51.6890799 240.149051,51.6890799 L240.493294,51.0988371 C240.493294,51.0988371 241.18178,51.6399585 242.115872,51.6399585 C243.099479,51.6399585 243.542358,51.1970799 243.542358,50.7542013 C243.542358,49.7214728 240.395051,50.2625942 240.395051,48.5413802 C240.395051,47.8033802 241.132265,47.0657732 242.460115,47.0657732 Z M153.257607,47.0657732 C154.684093,47.0657732 155.814671,48.1971374 155.814671,49.7214728 C155.814671,51.2462013 154.684093,52.3771725 153.257607,52.3771725 C151.831514,52.3771725 150.700543,51.2462013 150.700543,49.7214728 C150.700543,48.1971374 151.831514,47.0657732 153.257607,47.0657732 Z M117.409591,47.0657732 C118.393198,47.0657732 118.983048,47.5086518 118.983048,47.5086518 L118.835684,47.7542588 C118.835684,47.7542588 118.196319,47.3608946 117.409591,47.3608946 C116.671984,47.3608946 116.081741,47.656016 116.081741,47.656016 L116.081741,52.1806869 L115.737498,52.1806869 L115.737498,47.4591374 C115.737498,47.4591374 116.475105,47.0657732 117.409591,47.0657732 Z M230.215917,47.0657732 C231.838102,47.0657732 232.772588,48.0002588 232.772588,49.2789872 L232.772588,52.1806869 L231.936738,52.1806869 L231.936738,49.2789872 C231.936738,48.4427444 231.297374,47.8033802 230.215917,47.8033802 C229.47831,47.8033802 228.838946,48.0002588 228.838946,48.0002588 L228.838946,52.1806869 L228.002703,52.1806869 L228.002703,47.4591374 C228.002703,47.4591374 228.98631,47.0657732 230.215917,47.0657732 Z M226.331003,47.2626518 L226.331003,52.1806869 L225.49476,52.1806869 L225.49476,47.2626518 L226.331003,47.2626518 Z M146.766508,47.0657732 C148.291236,47.0657732 149.225722,48.0002588 149.225722,49.2298658 L149.225722,52.1806869 L148.881086,52.1806869 L148.881086,49.2298658 C148.881086,48.1971374 148.045236,47.3608946 146.766508,47.3608946 C145.881144,47.3608946 145.044901,47.656016 145.044901,47.656016 L145.044901,52.1806869 L144.700658,52.1806869 L144.700658,47.4591374 C144.700658,47.4591374 145.684265,47.0657732 146.766508,47.0657732 Z M138.701952,45.2958307 L138.701952,47.3608946 C138.701952,47.3608946 139.538195,47.0657732 140.422773,47.0657732 C141.947502,47.0657732 142.881987,48.0002588 142.881987,49.2298658 L142.881987,52.1806869 L142.537744,52.1806869 L142.537744,49.2298658 C142.537744,48.1971374 141.701502,47.3608946 140.422773,47.3608946 C139.538195,47.3608946 138.701952,47.656016 138.701952,47.656016 L138.701952,52.1806869 L138.357709,52.1806869 L138.357709,45.2958307 L138.701952,45.2958307 Z M157.830613,45.2958307 L157.830613,52.1806869 L157.485978,52.1806869 L157.485978,45.5909521 L156.699249,45.5909521 L156.699249,45.2958307 L157.830613,45.2958307 Z M203.710792,47.0657732 C204.644885,47.0657732 205.333371,47.4591374 205.333371,47.4591374 L205.087764,48.147623 C205.087764,48.147623 204.448399,47.8033802 203.710792,47.8033802 C203.169278,47.8033802 202.726792,48.0002588 202.726792,48.0002588 L202.726792,52.1806869 L201.89055,52.1806869 L201.89055,47.4591374 C201.89055,47.4591374 202.677671,47.0657732 203.710792,47.0657732 Z M220.134633,47.2626518 L221.855847,51.3448371 L221.904968,51.3448371 L223.626182,47.2626518 L224.511153,47.2626518 L222.396575,52.1806869 L221.36424,52.1806869 L219.249268,47.2626518 L220.134633,47.2626518 Z M161.912406,47.3608946 C160.682799,47.3608946 159.698799,48.3445016 159.698799,49.7214728 C159.698799,51.0988371 160.682799,52.0824441 161.912406,52.0824441 C163.142013,52.0824441 164.12562,51.0988371 164.12562,49.7214728 C164.12562,48.3445016 163.142013,47.3608946 161.912406,47.3608946 Z M153.257607,47.3608946 C152.028,47.3608946 151.044393,48.3445016 151.044393,49.7214728 C151.044393,51.0988371 152.028,52.0824441 153.257607,52.0824441 C154.487214,52.0824441 155.470821,51.0988371 155.470821,49.7214728 C155.470821,48.3445016 154.487214,47.3608946 153.257607,47.3608946 Z M105.263636,47.3608946 C104.034029,47.3608946 103.050029,48.3445016 103.050029,49.7214728 C103.050029,51.0988371 104.034029,52.0824441 105.263636,52.0824441 C106.49285,52.0824441 107.47685,51.0988371 107.47685,49.7214728 C107.47685,48.3445016 106.49285,47.3608946 105.263636,47.3608946 Z M168.35399,47.3608946 C166.977019,47.3608946 165.993412,48.3445016 165.993412,49.62323 C165.993412,50.9019585 166.977019,51.8855655 168.35399,51.8855655 C169.239355,51.8855655 169.92784,51.4922013 169.92784,51.4922013 L169.92784,47.656016 C169.92784,47.656016 169.141112,47.3608946 168.35399,47.3608946 Z M191.515323,47.8033802 C190.531716,47.8033802 189.744987,48.5905016 189.744987,49.7214728 C189.744987,50.8528371 190.531716,51.6399585 191.515323,51.6399585 C192.49893,51.6399585 193.286051,50.8528371 193.286051,49.7214728 C193.286051,48.5905016 192.49893,47.8033802 191.515323,47.8033802 Z M216.249719,49.6723514 C215.119141,49.6723514 214.676655,50.11523 214.676655,50.6559585 C214.676655,51.1970799 215.119141,51.6399585 216.249719,51.6399585 C216.987326,51.6399585 217.62669,51.4430799 217.62669,51.4430799 L217.62669,49.8201086 C217.62669,49.8201086 217.085569,49.6723514 216.249719,49.6723514 Z M236.903109,47.8033802 C235.673895,47.8033802 234.887166,48.5905016 234.887166,49.62323 C234.887166,50.6559585 235.673895,51.4430799 236.903109,51.4430799 C237.542473,51.4430799 238.083594,51.1479585 238.083594,51.1479585 L238.083594,48.0002588 C238.083594,48.0002588 237.44423,47.8033802 236.903109,47.8033802 Z M129.014425,47.3608946 C127.883454,47.3608946 126.948968,48.2953802 126.948968,49.62323 L131.080275,49.62323 C131.080275,48.2953802 130.145789,47.3608946 129.014425,47.3608946 Z M225.888125,45.1971949 C226.183246,45.1971949 226.429246,45.4431949 226.429246,45.7383163 C226.429246,46.0330447 226.183246,46.2790447 225.888125,46.2790447 C225.593003,46.2790447 225.347396,46.0330447 225.347396,45.7383163 C225.347396,45.4431949 225.593003,45.1971949 225.888125,45.1971949 Z M135.793965,26.9362141 C136.518997,26.9362141 137.208268,26.9884792 137.861387,27.0918307 C138.514898,27.196361 139.049339,27.3236837 139.465888,27.4741917 L139.465888,29.7141278 C138.905904,29.5349329 138.340812,29.3981789 137.770217,29.3050447 C137.19923,29.2119105 136.623134,29.165147 136.041144,29.165147 C135.259131,29.165147 134.526633,29.2818594 133.844435,29.5148914 C133.162629,29.7487093 132.571994,30.0929521 132.07292,30.5487987 C131.573847,31.0050383 131.181268,31.5669872 130.893613,32.2342524 C130.606744,32.9019105 130.462917,33.6737061 130.462917,34.549639 C130.470383,36.2512045 130.91562,37.5275751 131.798233,38.3779649 C132.68124,39.2287476 133.934425,39.6539425 135.557003,39.6539425 C135.858412,39.6539425 136.170824,39.6382236 136.493847,39.606 C136.816869,39.5733834 137.100201,39.5325144 137.344629,39.4818211 L137.344629,36.1109137 L134.114013,36.1109137 L134.114013,33.9035942 L139.982645,33.9035942 L139.982645,41.1723834 C139.76769,41.2517636 139.49261,41.3338946 139.159371,41.4203482 C138.824952,41.5064089 138.452022,41.5838243 138.03901,41.6518083 C137.625997,41.7197923 137.200802,41.7755942 136.763032,41.8188211 C136.324869,41.861655 135.890636,41.8832684 135.459939,41.8832684 C134.16785,41.8832684 133.03845,41.7091821 132.07292,41.3610096 C131.10739,41.01323 130.303764,40.5228019 129.660863,39.8912971 C129.018355,39.2593994 128.537358,38.5072524 128.217872,37.6348562 C127.897994,36.762853 127.738447,35.7988946 127.738447,34.7433738 C127.738447,33.9971214 127.822936,33.2842716 127.991914,32.6060032 C128.160105,31.9273419 128.40807,31.2989808 128.734629,30.7217061 C129.061188,30.1436454 129.458089,29.6213866 129.924939,29.1545367 C130.391396,28.6880799 130.924658,28.2892141 131.523939,27.9591182 C132.12322,27.6290224 132.780268,27.3759489 133.49469,27.1998978 C134.209112,27.0238466 134.975406,26.9362141 135.793965,26.9362141 Z M184.931482,26.9362141 C185.656907,26.9362141 186.346179,26.9884792 186.999297,27.0918307 C187.652808,27.196361 188.187249,27.3236837 188.604192,27.4741917 L188.604192,29.7141278 C188.043815,29.5349329 187.478722,29.3981789 186.908128,29.3050447 C186.336748,29.2119105 185.761045,29.165147 185.179447,29.165147 C184.397042,29.165147 183.664543,29.2818594 182.982738,29.5148914 C182.30054,29.7487093 181.710297,30.0929521 181.210831,30.5487987 C180.71215,31.0050383 180.319179,31.5669872 180.031917,32.2342524 C179.744655,32.9019105 179.60122,33.6737061 179.60122,34.549639 C179.608294,36.2512045 180.05353,37.5275751 180.936537,38.3779649 C181.819543,39.2287476 183.072335,39.6539425 184.695307,39.6539425 C184.996323,39.6539425 185.308735,39.6382236 185.631757,39.606 C185.95478,39.5733834 186.238112,39.5325144 186.482147,39.4818211 L186.482147,36.1109137 L183.251923,36.1109137 L183.251923,33.9035942 L189.120949,33.9035942 L189.120949,41.1723834 C188.905601,41.2517636 188.630914,41.3338946 188.297281,41.4203482 C187.963256,41.5064089 187.589933,41.5838243 187.17692,41.6518083 C186.763907,41.7197923 186.338712,41.7755942 185.900942,41.8188211 C185.463173,41.861655 185.028546,41.8832684 184.598243,41.8832684 C183.30576,41.8832684 182.176361,41.7091821 181.210831,41.3610096 C180.2453,41.01323 179.441281,40.5228019 178.799166,39.8912971 C178.156658,39.2593994 177.675268,38.5072524 177.355783,37.6348562 C177.035904,36.762853 176.876751,35.7988946 176.876751,34.7433738 C176.876751,33.9971214 176.960847,33.2842716 177.129824,32.6060032 C177.298016,31.9273419 177.545981,31.2989808 177.87254,30.7217061 C178.199099,30.1436454 178.596,29.6213866 179.06285,29.1545367 C179.529307,28.6880799 180.062962,28.2892141 180.66185,27.9591182 C181.261131,27.6290224 181.918179,27.3759489 182.632994,27.1998978 C183.347022,27.0238466 184.113316,26.9362141 184.931482,26.9362141 Z M167.591233,26.9362141 C168.703735,26.9362141 169.69638,27.1189457 170.568776,27.4851949 C171.441173,27.8514441 172.176815,28.3646645 172.776489,29.0248562 C173.37577,29.6858339 173.83201,30.4737412 174.144422,31.3893642 C174.456441,32.3042013 174.61245,33.3109936 174.61245,34.4097412 C174.61245,35.5080958 174.456441,36.5148882 174.144422,37.4305112 C173.83201,38.3457412 173.37577,39.1336486 172.776489,39.7942332 C172.176815,40.4544249 171.441173,40.9680383 170.568776,41.3338946 C169.69638,41.7005367 168.703735,41.8832684 167.591233,41.8832684 C166.478339,41.8832684 165.486086,41.7005367 164.61369,41.3338946 C163.741294,40.9680383 163.005259,40.4544249 162.406371,39.7942332 C161.806696,39.1336486 161.350457,38.3457412 161.038045,37.4305112 C160.726419,36.5148882 160.570016,35.5080958 160.570016,34.4097412 C160.570016,33.3109936 160.726419,32.3042013 161.038045,31.3893642 C161.350457,30.4737412 161.806696,29.6858339 162.406371,29.0248562 C163.005259,28.3646645 163.741294,27.8514441 164.61369,27.4851949 C165.486086,27.1189457 166.478339,26.9362141 167.591233,26.9362141 Z M196.844799,27.2050064 C197.569831,27.2050064 198.244562,27.2466613 198.86978,27.3291853 C199.494211,27.4117093 200.028652,27.5354952 200.473888,27.7005431 C201.320741,28.0235655 201.974252,28.5029904 202.434029,29.1384249 C202.893412,29.7738594 203.1233,30.57277 203.1233,31.5343706 C203.1233,32.5395911 202.844684,33.3923387 202.288236,34.0922204 C201.731789,34.7921022 200.872754,35.3108243 199.709559,35.6479936 L199.709559,35.6912204 L203.995304,41.6140831 L200.829527,41.6140831 L196.909639,36.0358562 L195.100399,36.0358562 L195.100399,41.6140831 L192.461597,41.6140831 L192.461597,27.2050064 L196.844799,27.2050064 Z M111.127553,27.2050064 L111.127553,29.4131118 L104.429358,29.4131118 L104.429358,33.1392652 L110.180099,33.1392652 L110.180099,35.3465847 L104.429358,35.3465847 L104.429358,39.4063706 L111.515415,39.4063706 L111.515415,41.6140831 L101.790949,41.6140831 L101.790949,27.2050064 L111.127553,27.2050064 Z M144.745457,27.2050064 L148.578891,33.4080575 L148.611115,33.4080575 L152.444942,27.2050064 L155.37415,27.2050064 L149.914208,35.8098978 L149.914208,41.6140831 L147.275799,41.6140831 L147.275799,35.8098978 L141.815856,27.2050064 L144.745457,27.2050064 Z M215.758112,27.2050064 L215.758112,29.4131118 L209.059524,29.4131118 L209.059524,33.1392652 L214.810658,33.1392652 L214.810658,35.3465847 L209.059524,35.3465847 L209.059524,39.4063706 L216.145188,39.4063706 L216.145188,41.6140831 L206.421115,41.6140831 L206.421115,27.2050064 L215.758112,27.2050064 Z M88.4028115,27.2050064 L93.1412588,33.9035942 C94.1751661,35.3752716 95.0149457,36.6822939 95.6609904,37.8234824 L95.7254377,37.8234824 C95.6454812,36.0743412 95.602153,34.7698758 95.5967313,33.9091276 L95.5961502,27.2050064 L98.2349521,27.2050064 L98.2349521,41.6140831 L95.4672556,41.6140831 L90.7716422,34.9807284 C89.9460096,33.8320735 89.0920831,32.499901 88.2086837,30.9849968 L88.1442364,30.9849968 C88.2306901,32.7514026 88.273524,34.1185495 88.273524,35.0880096 L88.273524,41.6140831 L85.635508,41.6140831 L85.635508,27.2050064 L88.4028115,27.2050064 Z M118.808569,27.2050064 C119.533994,27.2050064 120.208725,27.2466613 120.833157,27.3291853 C121.457981,27.4117093 121.992422,27.5354952 122.437658,27.7005431 C123.284904,28.0235655 123.938022,28.5029904 124.397406,29.1384249 C124.857182,29.7738594 125.08707,30.57277 125.08707,31.5343706 C125.08707,32.5395911 124.808454,33.3923387 124.252399,34.0922204 C123.695952,34.7921022 122.836131,35.3108243 121.673329,35.6479936 L121.673329,35.6912204 L125.959466,41.6140831 L122.792904,41.6140831 L118.873409,36.0358562 L117.064169,36.0358562 L117.064169,41.6140831 L114.42576,41.6140831 L114.42576,27.2050064 L118.808569,27.2050064 Z M82.3373003,27.2050064 L82.3373003,29.4131118 L75.6391054,29.4131118 L75.6391054,33.1392652 L81.3898466,33.1392652 L81.3898466,35.3465847 L75.6391054,35.3465847 L75.6391054,39.4063706 L82.7251629,39.4063706 L82.7251629,41.6140831 L73.0006965,41.6140831 L73.0006965,27.2050064 L82.3373003,27.2050064 Z M167.591233,29.165147 C166.966409,29.165147 166.391885,29.2732141 165.868054,29.4881693 C165.343831,29.7039105 164.891914,30.0304696 164.511125,30.4682396 C164.131121,30.9064026 163.832856,31.4538115 163.617508,32.1104665 C163.40216,32.7675144 163.294879,33.5338083 163.294879,34.4097412 C163.294879,35.2856741 163.40216,36.0515751 163.617508,36.709016 C163.832856,37.3660639 164.131121,37.911508 164.511125,38.3457412 C164.891914,38.7799744 165.343831,39.1069265 165.868054,39.3258115 C166.391885,39.5446965 166.966409,39.6539425 167.591233,39.6539425 C168.215665,39.6539425 168.790188,39.5446965 169.314412,39.3258115 C169.838243,39.1069265 170.290553,38.7799744 170.671342,38.3457412 C171.051738,37.911508 171.34961,37.3660639 171.565351,36.709016 C171.779914,36.0515751 171.887981,35.2856741 171.887981,34.4097412 C171.887981,33.5338083 171.779914,32.7675144 171.565351,32.1104665 C171.34961,31.4538115 171.051738,30.9064026 170.671342,30.4682396 C170.290553,30.0304696 169.838243,29.7039105 169.314412,29.4881693 C168.790188,29.2732141 168.215665,29.165147 167.591233,29.165147 Z M196.985089,29.4131118 L195.100399,29.4131118 L195.100399,33.8281438 L196.403492,33.8281438 C197.006703,33.8281438 197.517958,33.8014217 197.937652,33.7475847 C198.357738,33.6933546 198.711412,33.6127955 198.998674,33.5051214 C199.529971,33.3043131 199.897792,33.0296262 200.10253,32.6814537 C200.306875,32.3328882 200.409441,31.9328435 200.409441,31.4805335 C200.409441,31.0926709 200.328489,30.750393 200.167371,30.4521278 C200.005859,30.1542556 199.73078,29.9192588 199.34331,29.7467444 C199.091808,29.6319968 198.775859,29.547508 198.395463,29.4936709 C198.014674,29.4398339 197.544681,29.4131118 196.985089,29.4131118 Z M118.948466,29.4131118 L117.064169,29.4131118 L117.064169,33.8281438 L118.367262,33.8281438 C118.97008,33.8281438 119.481728,33.8014217 119.901422,33.7475847 C120.321901,33.6933546 120.675575,33.6127955 120.962444,33.5051214 C121.493741,33.3043131 121.861562,33.0296262 122.0663,32.6814537 C122.270645,32.3328882 122.373211,31.9328435 122.373211,31.4805335 C122.373211,31.0926709 122.292652,30.750393 122.130748,30.4521278 C121.969236,30.1542556 121.694942,29.9192588 121.30708,29.7467444 C121.055578,29.6319968 120.740022,29.547508 120.359233,29.4936709 C119.978837,29.4398339 119.50845,29.4131118 118.948466,29.4131118 Z M39.8237061,28.1237732 C39.1784473,28.1237732 38.6381118,29.0936262 38.4141182,30.4580224 C37.0485431,30.1813706 35.4275367,30.0167157 33.6697764,30.0167157 C31.6895942,30.0167157 29.8815335,30.2257764 28.426361,30.5708051 C28.1524601,29.5868051 27.6907188,28.9384026 27.1668882,28.9384026 C26.4835112,28.9384026 25.9078083,30.0300767 25.7176102,31.528476 C26.2430128,31.8149521 26.8049617,32.0640958 27.3928466,32.2904473 C27.5099521,32.3376038 27.6380607,32.3753291 27.7614537,32.4185559 C27.9631789,32.4908626 28.1617604,32.5675357 28.3653486,32.6373972 L28.6755048,32.7356837 L28.6755048,32.704246 C30.135393,33.1266901 31.7147444,33.3844792 33.3923387,33.3844792 C34.9806891,33.3844792 36.4913728,33.1712137 37.8874342,32.789373 L38.348492,32.6559105 C38.3744281,32.6539457 38.3952556,32.6425495 38.417655,32.636655 C38.8939361,32.4877188 39.3556773,32.3207061 39.7961981,32.1332588 C39.8846166,32.0971054 39.9675335,32.0585942 40.0532013,32.020476 C40.3350927,31.8949872 40.6117444,31.7646081 40.8794306,31.6252634 L41.27377,31.4090128 L41.328,31.3807188 C41.2415463,29.5482939 40.5990383,28.1237732 39.8237061,28.1237732 Z M27.8868115,15.0954569 C24.8201002,15.0954569 22.3316294,17.5785842 22.3316294,20.6412077 C22.3316294,23.7060393 24.8199513,26.1908882 27.8868115,26.1908882 C30.9545987,26.1908882 33.4412077,23.706683 33.4412077,20.6412077 C33.4412077,17.577941 30.9544498,15.0954569 27.8868115,15.0954569 Z M39.2759042,17.9940128 C37.0071115,17.9940128 35.1656773,19.8289416 35.1656773,22.0928435 C35.1656773,24.3560979 37.0072503,26.1908882 39.2759042,26.1908882 C41.5417096,26.1908882 43.3794505,24.3561925 43.3794505,22.0928435 C43.3794505,19.828847 41.5418482,17.9940128 39.2759042,17.9940128 Z M27.8868115,16.0954569 C30.4025497,16.0954569 32.4412077,18.1306112 32.4412077,20.6412077 C32.4412077,23.1541817 30.4025304,25.1908882 27.8868115,25.1908882 C25.3719236,25.1908882 23.3316294,23.1534417 23.3316294,20.6412077 C23.3316294,18.1313507 25.3719043,16.0954569 27.8868115,16.0954569 Z M39.2759042,18.9940128 C40.9899006,18.9940128 42.3794505,20.3814695 42.3794505,22.0928435 C42.3794505,23.8035361 40.9897958,25.1908882 39.2759042,25.1908882 C37.5587107,25.1908882 36.1656773,23.8029855 36.1656773,22.0928435 C36.1656773,20.3820202 37.5586056,18.9940128 39.2759042,18.9940128 Z M39.2759042,19.7633099 C37.9846006,19.7633099 36.9400831,20.8046837 36.9400831,22.0928435 C36.9400831,23.3790383 37.9846006,24.4235559 39.2759042,24.4235559 C40.5593482,24.4235559 41.6042588,23.3790383 41.6042588,22.0928435 C41.6042588,21.6794377 41.5001214,21.2915751 41.3071725,20.9555847 C41.1562716,21.2766422 40.8312843,21.5022077 40.4493163,21.5022077 C39.9231278,21.5022077 39.4995048,21.074262 39.4995048,20.5504313 C39.4995048,20.2615974 39.6287923,20.0057732 39.8307796,19.8320799 C39.6500128,19.7876741 39.4633514,19.7633099 39.2759042,19.7633099 Z M27.8868115,17.7693738 C26.2992077,17.7693738 25.009476,19.0571406 25.009476,20.6412077 C25.009476,22.2303834 26.2992077,23.5161853 27.8868115,23.5161853 C29.4748083,23.5161853 30.7621821,22.2303834 30.7621821,20.6412077 C30.7621821,20.1338818 30.6281789,19.6552428 30.3986837,19.2410511 C30.2069137,19.638345 29.8060831,19.9134249 29.3392332,19.9134249 C28.6884728,19.9134249 28.1642492,19.3892013 28.1642492,18.7400128 C28.1642492,18.3851597 28.3273323,18.0692109 28.5733323,17.8550415 C28.3548403,17.8019904 28.1237732,17.7693738 27.8868115,17.7693738 Z M36.9204345,13.3975687 C36.8622748,13.5952332 37.2521022,13.8789585 37.7869361,14.0333962 C38.3221629,14.1878339 38.8031597,14.1524665 38.8593546,13.9548019 C38.9179073,13.7571374 38.5316166,13.4718403 37.9956038,13.3174026 C37.4568403,13.1653227 36.9758435,13.2006901 36.9204345,13.3975687 Z M38.3245208,12.4898051 C38.2679329,12.6886486 38.6546166,12.9735527 39.1882716,13.1264185 C39.7242843,13.2800703 40.2041022,13.2450958 40.261869,13.0470383 C40.3176709,12.8513387 39.9313802,12.5656486 39.3965463,12.4116038 C38.8593546,12.2555942 38.3783578,12.2937125 38.3245208,12.4898051 Z M31.733607,12.4898051 C31.6762332,12.6886486 32.0640958,12.9735527 32.5993227,13.1264185 C33.1337636,13.2800703 33.6159393,13.2450958 33.6733131,13.0470383 C33.7310799,12.8513387 33.3408594,12.5656486 32.8068115,12.4116038 C32.2700128,12.2555942 31.7874441,12.2937125 31.733607,12.4898051 Z M34.6077987,11.630377 C34.5111278,11.9640096 35.1666038,12.4450064 36.0724026,12.7047604 C36.9734856,12.9637284 37.7845783,12.9036038 37.8816422,12.5699712 C37.9747764,12.2371246 37.3204792,11.7576997 36.4182173,11.4967668 C35.5139904,11.2377987 34.7036837,11.2979233 34.6077987,11.630377 Z" id="Energy-Ogre"></path>
            <path d="M21.8719936,17.3143131 C21.1599297,16.6289712 20.4156422,15.9734952 19.7695974,15.2221342 C19.1388786,14.4900288 18.7883482,13.9096102 17.8287125,14.677869 C17.0580958,15.2983706 16.5315144,16.3813994 16.5546997,17.3771885 C16.5869233,18.6794952 17.2962364,19.6462045 18.7011086,19.6493482 C19.4512907,19.652492 20.7925016,19.7059361 21.4601597,19.4222109 C21.935262,19.2198307 21.8959649,18.9840479 21.8983227,18.4590383 C21.8983227,18.3757284 21.9195431,17.3630415 21.8719936,17.3143131" id="Fill-17"></path>
        </g>
    </g>
</svg>