<?xml version="1.0" encoding="UTF-8"?>
<svg width="149px" height="13px" viewBox="0 0 149 13" version="1.1" xmlns="http://www.w3.org/2000/svg" xmlns:xlink="http://www.w3.org/1999/xlink">
    <title>line</title>
    <defs>
        <linearGradient x1="-1.11022302e-14%" y1="50%" x2="90.4405718%" y2="50.3258785%" id="linearGradient-1">
            <stop stop-color="#150FBA" offset="0%"></stop>
            <stop stop-color="#A91889" offset="100%"></stop>
        </linearGradient>
    </defs>
    <g id="home" stroke="none" stroke-width="1" fill="none" fill-rule="evenodd">
        <g id="1440-tino-home-copy-2" transform="translate(-601.000000, -6273.000000)" fill="url(#linearGradient-1)">
            <g id="Benefits" transform="translate(162.000000, 6262.000000)">
                <g id="star-5" transform="translate(439.000000, 0.000000)">
                    <path d="M1.95982449,19.9403316 C14.1366467,22.6464191 26.318303,24 38.5016901,24 C50.2499563,24 61.9966131,22.7413769 73.7388779,20.225094 L75.0435557,19.9403316 C86.8656068,17.3130858 98.6828238,16 110.49831,16 C122.313796,16 134.131013,17.3130858 145.953064,19.9403316 C147.302355,20.240188 148.639529,19.3906961 148.939727,18.0429382 C149.239925,16.6951803 148.389466,15.3595249 147.040176,15.0596684 C134.863353,12.3535809 122.681697,11 110.49831,11 C98.7500437,11 87.0033869,12.2586231 75.2611221,14.774906 L73.9564443,15.0596684 C62.1343932,17.6869142 50.3171762,19 38.5016901,19 C26.686204,19 14.8689871,17.6869142 3.04693598,15.0596684 C1.69764513,14.759812 0.36047057,15.6093039 0.0602730194,16.9570618 C-0.239924531,18.3048197 0.61053363,19.6404751 1.95982449,19.9403316 Z" id="line"></path>
                </g>
            </g>
        </g>
    </g>
</svg>