<?xml version="1.0" encoding="UTF-8"?>
<svg width="60px" height="60px" viewBox="0 0 60 60" version="1.1" xmlns="http://www.w3.org/2000/svg" xmlns:xlink="http://www.w3.org/1999/xlink">
    <title>Group 2</title>
    <g id="home" stroke="none" stroke-width="1" fill="none" fill-rule="evenodd">
        <g id="1440-tino-home-copy-2" transform="translate(-207.000000, -6807.000000)">
            <g id="Benefits" transform="translate(162.000000, 6262.000000)">
                <g id="Group-2" transform="translate(45.000000, 545.000000)">
                    <circle id="back-o" fill="#FFF7E7" opacity="0.0954706101" cx="30" cy="30" r="30"></circle>
                    <g id="logo_clutch" transform="translate(15.000000, 15.000000)" fill-rule="nonzero">
                        <path d="M21.2981261,21.2617473 C19.8143101,22.6244344 17.8551959,23.3797424 15.7052811,23.3797424 C10.9659284,23.3797424 7.48551959,19.8242255 7.48551959,14.9425687 C7.48551959,10.0609119 10.8551959,6.65506439 15.7052811,6.65506439 C17.8177172,6.65506439 19.8143101,7.37382527 21.3356048,8.73651236 L22.3696763,9.64497041 L26.9642249,4.95301079 L25.8143101,3.89314306 C23.1107325,1.39923425 19.5212947,4.95603558e-13 15.7035775,4.95603558e-13 C7.18568995,4.95603558e-13 1,6.27915071 1,14.9060216 C1,23.4963453 7.33390119,30 15.7035775,30 C19.592845,30 23.2197615,28.6007658 25.8892675,26.0668291 L27,25.0069614 L22.3339012,20.3184824 L21.2981261,21.2617473 Z" id="Path" fill="#FFF7E7"></path>
                        <path d="M14.9982711,10 C17.761065,10 20,12.2354772 20,15 C20,17.761065 17.761065,20 14.9982711,20 C12.2372061,20 10,17.761065 10,15 C10.0017289,12.2372061 12.238935,10 14.9982711,10" id="Path" fill="#FF3D2E"></path>
                    </g>
                </g>
            </g>
        </g>
    </g>
</svg>